<svg xmlns="http://www.w3.org/2000/svg" xmlns:xlink="http://www.w3.org/1999/xlink" width="500" zoomAndPan="magnify" viewBox="0 0 375 374.999991" height="500" preserveAspectRatio="xMidYMid meet" version="1.0"><defs><g/><clipPath id="4ffa54b7ce"><path d="M 109.015625 61.769531 L 251.515625 61.769531 L 251.515625 282.269531 L 109.015625 282.269531 Z M 109.015625 61.769531 " clip-rule="nonzero"/></clipPath></defs><g fill="#ffffff" fill-opacity="1"><g transform="translate(5.961143, 230.98688)"><g><path d="M 51.277344 -14.820312 L 49.277344 -14.820312 C 46.335938 -14.820312 43.398438 -14.9375 40.574219 -15.054688 C 36.8125 -15.40625 33.046875 -15.757812 29.285156 -15.878906 L 23.285156 -15.878906 L 27.753906 -23.050781 C 34.222656 -32.105469 40.222656 -41.164062 46.808594 -49.160156 C 48.570312 -51.160156 49.746094 -53.160156 51.160156 -54.921875 C 52.453125 -55.039062 53.746094 -55.039062 55.15625 -55.039062 L 55.039062 -57.863281 C 54.6875 -58.804688 53.980469 -59.863281 53.980469 -60.921875 C 53.980469 -61.273438 53.980469 -61.507812 54.097656 -61.625 C 54.097656 -62.449219 54.6875 -62.800781 55.039062 -63.625 C 55.15625 -63.742188 55.15625 -63.976562 55.15625 -64.332031 L 55.039062 -66.09375 C 54.921875 -66.449219 54.21875 -68.566406 54.21875 -70.328125 C 54.21875 -71.269531 54.453125 -71.742188 55.039062 -71.859375 C 52.570312 -71.859375 50.101562 -71.742188 47.632812 -71.386719 C 46.335938 -71.269531 45.277344 -71.269531 44.21875 -71.269531 C 41.75 -71.269531 39.28125 -71.386719 36.8125 -71.503906 C 33.046875 -71.621094 29.402344 -72.09375 25.285156 -72.09375 L 14.464844 -72.09375 L 7.410156 -71.269531 C 8.351562 -70.566406 10.46875 -70.566406 12.703125 -70.445312 C 12.347656 -69.859375 12.230469 -68.917969 11.289062 -68.449219 L 7.878906 -68.09375 C 7.527344 -67.976562 7.410156 -67.859375 7.410156 -67.625 C 7.410156 -67.269531 8.113281 -67.035156 8.46875 -66.566406 C 8.703125 -66.09375 8.820312 -65.625 8.820312 -65.15625 L 8.351562 -57.628906 C 8.351562 -56.804688 8.234375 -56.097656 8.585938 -55.277344 L 31.519531 -55.277344 C 28.34375 -51.160156 25.636719 -47.511719 22.933594 -43.398438 C 19.171875 -38.222656 15.757812 -32.695312 12.585938 -27.167969 C 8.9375 -20.699219 5.527344 -13.996094 2.351562 -6.820312 L 4.585938 -5.761719 L 6.820312 -5.996094 C 7.527344 -5.996094 7.996094 -5.761719 8.351562 -5.410156 C 8.820312 -4.941406 8.703125 -3.882812 9.171875 -3.292969 C 9.527344 -2.46875 10.347656 -2.234375 11.171875 -2.117188 C 11.289062 -2 11.761719 -2 12.585938 -1.882812 L 12.585938 -1.175781 C 12.585938 -0.351562 12.703125 0.117188 12.820312 0.941406 L 14.9375 0.941406 C 20.699219 0.941406 26.695312 1.292969 32.34375 1.410156 C 36.457031 1.410156 40.105469 1.410156 44.21875 1.527344 C 48.925781 1.648438 53.511719 1.765625 58.097656 1.765625 L 58.097656 -1.058594 C 57.746094 -2 57.15625 -3.058594 57.15625 -4.117188 C 57.15625 -4.46875 57.15625 -4.703125 57.273438 -4.820312 C 57.390625 -5.644531 57.863281 -5.996094 58.214844 -6.820312 C 58.332031 -7.054688 58.332031 -7.410156 58.332031 -7.996094 L 58.332031 -9.289062 C 57.980469 -10.113281 57.628906 -11.878906 57.628906 -13.289062 C 57.628906 -14.699219 56.804688 -15.054688 55.746094 -15.054688 L 52.21875 -14.699219 C 51.746094 -14.699219 51.394531 -14.699219 51.277344 -14.820312 Z M 47.511719 -51.984375 C 47.394531 -52.804688 47.277344 -53.394531 47.277344 -53.746094 C 47.277344 -54.21875 47.394531 -54.570312 47.511719 -54.921875 L 50.335938 -54.921875 C 49.394531 -54.097656 48.453125 -53.160156 47.511719 -51.984375 Z M 47.511719 -51.984375 "/></g></g></g><g fill="#ffffff" fill-opacity="1"><g transform="translate(67.232479, 230.98688)"><g><path d="M 20.816406 -66.917969 L 20.226562 -66.566406 C 17.40625 -64.332031 14.9375 -61.390625 12.9375 -58.6875 C 11.054688 -55.511719 9.410156 -52.570312 8.113281 -49.394531 C 6.9375 -46.21875 5.996094 -42.925781 5.292969 -39.515625 C 4.941406 -36.8125 4.703125 -34.339844 4.703125 -31.636719 L 4.820312 -29.285156 C 4.941406 -25.636719 5.527344 -22.226562 6.585938 -18.816406 C 7.175781 -16.933594 7.761719 -15.40625 8.703125 -13.640625 C 9.644531 -11.878906 10.703125 -9.996094 11.996094 -8.585938 C 13.289062 -7.054688 14.582031 -5.527344 16.347656 -4.117188 C 18.230469 -2.824219 20.109375 -2 21.875 -1.175781 C 24.109375 -0.351562 25.875 0.351562 27.871094 0.46875 L 28.578125 0.46875 L 28.929688 0.589844 C 30.109375 0.824219 31.164062 0.941406 32.222656 0.941406 C 32.929688 0.941406 33.402344 0.941406 33.753906 0.824219 C 36.222656 0.707031 38.457031 0.351562 40.574219 -0.234375 L 42.222656 -0.589844 L 43.515625 -1.058594 C 44.925781 -1.410156 45.984375 -2 47.277344 -2.585938 C 49.511719 -3.761719 51.628906 -5.058594 53.394531 -6.585938 C 55.15625 -8.113281 56.804688 -9.878906 58.097656 -11.761719 C 61.039062 -15.523438 62.800781 -19.171875 64.332031 -23.523438 C 65.742188 -27.402344 66.449219 -31.753906 66.800781 -35.988281 L 66.917969 -39.046875 C 66.917969 -40.457031 66.800781 -41.984375 66.683594 -43.398438 C 66.449219 -46.101562 65.976562 -48.570312 65.273438 -51.042969 L 64.917969 -52.101562 C 64.332031 -54.097656 63.15625 -56.332031 62.214844 -58.332031 C 60.921875 -60.804688 59.273438 -63.15625 57.511719 -65.15625 C 56.453125 -66.214844 55.511719 -66.917969 54.21875 -67.859375 L 52.570312 -69.386719 L 50.6875 -70.328125 C 49.394531 -71.152344 47.867188 -72.09375 46.101562 -72.445312 C 44.808594 -72.800781 43.28125 -73.152344 41.75 -73.152344 L 36.8125 -73.152344 L 32.929688 -72.210938 C 30.695312 -71.621094 28.929688 -71.386719 27.519531 -71.035156 C 27.753906 -70.917969 27.871094 -70.683594 27.871094 -70.566406 L 27.992188 -69.386719 C 27.992188 -68.917969 28.109375 -68.683594 28.34375 -68.566406 L 30.929688 -67.269531 C 31.519531 -67.035156 31.988281 -66.683594 32.105469 -66.332031 L 32.105469 -65.507812 C 32.105469 -65.15625 31.402344 -64.917969 30.8125 -64.566406 C 29.988281 -63.976562 29.519531 -63.742188 29.167969 -63.390625 C 29.050781 -63.273438 28.929688 -62.921875 28.929688 -62.566406 L 28.929688 -62.097656 C 29.285156 -61.742188 29.402344 -61.507812 29.519531 -61.15625 C 29.519531 -60.921875 29.988281 -60.566406 30.929688 -60.214844 C 31.753906 -59.628906 32.222656 -59.390625 32.695312 -58.570312 C 32.8125 -58.449219 33.046875 -58.214844 33.164062 -57.863281 C 33.164062 -57.390625 33.164062 -57.15625 33.046875 -57.039062 C 33.046875 -56.6875 31.753906 -56.097656 33.753906 -56.214844 L 36.574219 -57.039062 C 37.632812 -57.273438 38.457031 -57.390625 39.164062 -57.390625 C 39.988281 -57.511719 40.339844 -57.628906 40.808594 -57.628906 L 41.984375 -57.511719 L 43.515625 -56.804688 L 44.21875 -56.214844 C 44.574219 -56.097656 44.808594 -55.863281 45.160156 -55.511719 L 46.691406 -53.980469 C 47.984375 -52.21875 49.277344 -50.453125 50.101562 -48.21875 L 50.335938 -47.394531 C 50.925781 -45.277344 51.277344 -43.160156 51.394531 -41.046875 L 51.394531 -39.28125 C 51.394531 -34.695312 50.570312 -30.226562 48.808594 -26.109375 C 47.511719 -23.402344 46.21875 -21.640625 44.691406 -19.875 C 43.867188 -19.050781 43.042969 -18.347656 41.984375 -17.757812 C 41.164062 -17.054688 40.339844 -16.582031 39.28125 -16.347656 L 38.929688 -16.113281 C 38.105469 -15.996094 37.988281 -15.878906 37.632812 -15.878906 C 37.046875 -15.523438 36.574219 -15.40625 35.753906 -15.289062 C 34.457031 -15.171875 33.402344 -15.289062 32.34375 -14.9375 C 31.046875 -15.054688 30.109375 -15.171875 29.167969 -15.523438 C 28.34375 -15.640625 27.519531 -15.996094 26.816406 -16.464844 C 25.992188 -16.816406 25.519531 -17.40625 24.933594 -17.992188 C 24.34375 -18.582031 23.640625 -19.289062 23.050781 -20.347656 C 22.226562 -21.40625 21.992188 -22.699219 21.523438 -24.109375 C 21.167969 -24.933594 20.933594 -25.757812 20.816406 -26.695312 C 20.464844 -28.226562 20.347656 -29.753906 20.347656 -31.519531 C 20.347656 -32.34375 20.347656 -33.28125 20.464844 -34.105469 C 20.816406 -36.8125 20.933594 -39.398438 21.757812 -41.867188 C 22.816406 -45.042969 24.226562 -47.984375 25.992188 -50.6875 C 27.871094 -53.394531 29.871094 -55.628906 32.34375 -56.804688 C 30.929688 -57.15625 28.8125 -55.039062 26.816406 -53.039062 C 26.226562 -52.101562 25.519531 -51.277344 24.699219 -50.335938 C 23.875 -49.277344 23.050781 -48.101562 22.464844 -46.808594 C 22.34375 -47.394531 22.226562 -47.984375 22.226562 -48.453125 L 22.226562 -48.925781 C 22.226562 -49.746094 22.464844 -50.453125 22.816406 -51.160156 C 23.402344 -52.570312 24.460938 -53.980469 25.992188 -55.277344 C 26.816406 -55.863281 27.402344 -56.570312 27.992188 -57.15625 C 28.8125 -57.628906 29.285156 -58.097656 29.636719 -58.6875 C 30.460938 -59.273438 30.578125 -59.390625 30.578125 -59.746094 C 30.578125 -59.863281 30.460938 -59.863281 30.226562 -59.863281 C 29.402344 -59.863281 27.753906 -58.921875 27.402344 -58.804688 C 27.050781 -58.804688 26.816406 -58.6875 26.460938 -58.6875 C 26.109375 -58.6875 25.757812 -58.804688 25.402344 -59.15625 L 24.816406 -60.566406 C 24.34375 -61.039062 24.109375 -61.742188 23.992188 -62.214844 L 23.402344 -64.214844 L 23.285156 -65.15625 C 23.167969 -65.625 22.933594 -65.976562 22.699219 -66.09375 C 22.34375 -66.683594 21.757812 -66.917969 20.816406 -66.917969 Z M 20.816406 -66.917969 "/></g></g></g><g fill="#ffffff" fill-opacity="1"><g transform="translate(138.863529, 230.98688)"><g/></g></g><g fill="#ffffff" fill-opacity="1"><g transform="translate(168.264365, 230.98688)"><g/></g></g><g fill="#ffffff" fill-opacity="1"><g transform="translate(197.665202, 230.98688)"><g/></g></g><g fill="#ffffff" fill-opacity="1"><g transform="translate(227.074602, 230.98688)"><g><path d="M 68.210938 -67.035156 C 68.328125 -67.035156 67.742188 -66.214844 67.269531 -66.214844 C 66.449219 -66.214844 66.332031 -67.390625 66.332031 -68.917969 L 66.332031 -73.859375 C 66.332031 -74.328125 66.214844 -74.5625 66.09375 -74.5625 C 65.15625 -74.5625 56.6875 -73.152344 56.453125 -73.152344 C 55.628906 -73.152344 55.628906 -73.035156 55.277344 -72.917969 L 55.277344 -71.035156 C 53.511719 -67.859375 52.101562 -65.035156 50.335938 -62.097656 C 49.042969 -59.628906 47.632812 -57.273438 45.867188 -55.039062 C 45.042969 -53.746094 44.21875 -52.921875 43.28125 -51.863281 C 42.925781 -51.277344 42.457031 -50.6875 42.101562 -50.335938 L 41.398438 -49.628906 L 41.164062 -49.277344 L 40.808594 -49.160156 C 40.808594 -49.277344 40.691406 -49.160156 40.691406 -49.511719 L 40.105469 -50.335938 C 39.28125 -50.925781 39.046875 -51.511719 38.222656 -52.335938 C 34.339844 -56.6875 30.34375 -60.683594 26.695312 -65.273438 L 23.402344 -69.386719 L 22.109375 -71.035156 C 21.992188 -73.035156 21.757812 -75.152344 21.757812 -77.386719 C 20.699219 -76.679688 21.285156 -73.976562 21.285156 -72.210938 L 20.109375 -73.738281 C 20.109375 -72.679688 20.816406 -71.742188 21.167969 -71.152344 L 21.167969 -69.035156 C 20.582031 -69.625 19.757812 -69.742188 19.40625 -71.152344 C 19.289062 -71.742188 19.171875 -72.210938 19.171875 -73.035156 L 19.171875 -74.5625 C 19.171875 -75.621094 19.050781 -76.328125 18.933594 -76.679688 C 18.816406 -77.152344 18.699219 -77.386719 18.582031 -77.386719 C 18.230469 -77.386719 18.113281 -76.328125 17.640625 -75.738281 C 17.289062 -75.269531 16.933594 -75.035156 16.347656 -75.035156 L 14.9375 -75.152344 C 13.996094 -75.152344 12.9375 -75.386719 11.644531 -75.738281 L 9.878906 -75.855469 C 9.289062 -75.855469 8.703125 -75.738281 8.234375 -75.503906 C 8.351562 -64.214844 8.9375 -53.394531 9.878906 -42.691406 C 10.46875 -36.105469 11.054688 -29.402344 11.527344 -22.816406 C 12.113281 -15.289062 12.347656 -7.878906 12.703125 -0.351562 C 12.820312 -0.46875 13.054688 -0.46875 13.289062 -0.46875 L 14.230469 -0.351562 C 14.347656 -0.351562 14.582031 -0.46875 14.9375 -0.589844 C 15.878906 -1.175781 16.816406 -2.234375 17.757812 -2.234375 C 17.992188 -2.234375 18.113281 -2.234375 18.230469 -2.117188 C 18.816406 -2 19.289062 -0.941406 19.875 -0.589844 C 20.226562 -0.46875 20.464844 -0.351562 20.699219 -0.351562 C 20.933594 -0.351562 21.40625 -0.46875 21.992188 -0.589844 C 22.109375 -0.707031 23.285156 -1.410156 24.578125 -1.765625 C 24.816406 -1.882812 25.167969 -1.882812 25.519531 -1.882812 C 26.34375 -1.882812 25.992188 -0.46875 26.933594 -0.46875 L 25.050781 -30.460938 C 24.699219 -35.988281 24.460938 -41.164062 23.992188 -46.691406 L 25.636719 -44.691406 C 26.460938 -43.632812 27.402344 -42.691406 28.34375 -41.75 L 32.105469 -37.753906 L 35.988281 -33.28125 L 39.867188 -29.050781 L 50.101562 -38.105469 L 51.511719 -39.75 L 51.746094 -40.105469 L 53.277344 -41.867188 C 54.097656 -42.808594 54.570312 -43.632812 55.394531 -44.574219 L 56.453125 -17.289062 C 56.804688 -9.289062 57.039062 -1.058594 57.15625 6.9375 L 59.507812 6.703125 C 60.449219 5.878906 61.390625 4.820312 62.332031 4.820312 L 62.683594 4.941406 C 63.507812 5.058594 63.625 6.234375 64.449219 6.703125 C 64.800781 6.820312 65.035156 6.9375 65.15625 6.9375 C 65.390625 6.9375 65.859375 7.054688 66.449219 6.703125 C 67.035156 6.351562 67.742188 5.761719 69.035156 5.410156 C 69.507812 5.292969 69.859375 5.175781 70.09375 5.175781 C 70.917969 5.175781 70.800781 6.46875 71.386719 6.820312 C 71.386719 1.648438 69.152344 -66.683594 68.210938 -67.035156 Z M 22.34375 -66.800781 C 22.34375 -67.859375 22.34375 -68.449219 22.226562 -69.507812 C 22.933594 -68.683594 23.285156 -67.976562 24.34375 -66.566406 C 23.523438 -66.683594 23.167969 -66.449219 22.34375 -66.800781 Z M 22.34375 -66.800781 "/></g></g></g><g fill="#ffffff" fill-opacity="1"><g transform="translate(306.692073, 230.98688)"><g><path d="M 54.570312 -17.289062 C 53.746094 -18.464844 52.921875 -19.640625 52.21875 -20.933594 L 52.101562 -21.285156 C 52.101562 -21.757812 53.039062 -22.464844 53.039062 -23.050781 C 53.160156 -23.167969 53.160156 -23.523438 53.039062 -23.992188 C 52.921875 -24.578125 52.921875 -24.933594 52.804688 -25.167969 C 52.804688 -25.285156 51.984375 -26.460938 51.511719 -27.636719 C 51.277344 -27.871094 51.160156 -28.226562 51.042969 -28.695312 C 50.925781 -29.519531 51.746094 -28.929688 52.21875 -30.109375 L 48.21875 -29.402344 L 46.808594 -32.929688 C 45.984375 -34.8125 45.277344 -36.929688 44.691406 -39.164062 L 42.222656 -47.277344 C 40.457031 -52.570312 39.28125 -57.863281 37.988281 -63.390625 C 37.164062 -67.152344 35.988281 -70.09375 35.164062 -73.738281 C 34.578125 -71.976562 35.398438 -68.917969 36.222656 -65.742188 C 35.398438 -66.09375 34.578125 -66.09375 33.988281 -67.390625 L 32.578125 -72.5625 C 32.460938 -73.035156 32.222656 -73.269531 31.988281 -73.269531 C 31.636719 -73.269531 31.753906 -71.976562 31.402344 -71.503906 C 30.929688 -70.210938 29.636719 -70.566406 28.695312 -70.210938 L 25.285156 -70.09375 C 25.285156 -71.386719 25.285156 -72.09375 25.167969 -73.035156 C 25.050781 -73.503906 24.816406 -73.738281 24.699219 -73.738281 C 24.34375 -73.738281 24.226562 -72.328125 23.640625 -71.859375 C 23.285156 -71.503906 22.933594 -71.269531 22.34375 -71.269531 L 20.816406 -71.386719 C 19.757812 -71.386719 18.699219 -71.621094 17.40625 -71.976562 C 16.582031 -72.09375 16.230469 -72.210938 15.640625 -72.210938 C 15.054688 -72.210938 14.464844 -72.09375 13.878906 -71.859375 C 13.761719 -66.332031 13.289062 -61.390625 12.464844 -55.863281 C 11.644531 -51.042969 10.703125 -46.21875 9.761719 -41.164062 L 9.527344 -39.75 C 8.234375 -33.046875 6.703125 -26.34375 5.410156 -19.289062 C 4.585938 -15.171875 4.117188 -11.171875 3.527344 -7.054688 C 2.941406 -2.941406 2.46875 1.058594 2.351562 5.644531 C 2.585938 5.175781 6.351562 3.882812 7.644531 3.882812 L 8.234375 4 C 8.820312 4.351562 8.9375 5.175781 9.761719 5.761719 C 9.996094 5.878906 10.347656 5.996094 10.703125 5.996094 C 11.289062 5.996094 11.644531 5.996094 11.878906 5.878906 C 12.230469 5.878906 13.40625 5.175781 14.699219 4.820312 L 15.523438 4.703125 C 16.347656 4.703125 16.113281 5.644531 16.816406 6.234375 C 17.171875 2.351562 17.40625 -1.527344 17.875 -5.644531 L 18.230469 -8.46875 L 40.222656 -13.054688 L 42.925781 -8.9375 C 45.160156 -5.292969 47.75 -2 51.042969 0.824219 C 51.277344 0.46875 51.277344 0.351562 51.628906 0 C 52.21875 -0.351562 52.453125 -0.707031 52.570312 -1.175781 C 52.570312 -1.765625 52.6875 -2.351562 52.804688 -3.175781 C 52.921875 -3.761719 53.160156 -4.234375 53.628906 -4.703125 C 53.746094 -4.820312 53.863281 -4.820312 54.21875 -4.820312 L 55.511719 -4.703125 C 56.804688 -4.703125 57.039062 -5.761719 57.390625 -6.117188 C 57.390625 -6.46875 57.511719 -6.820312 57.746094 -7.175781 C 57.863281 -7.644531 58.332031 -8.351562 58.6875 -8.9375 C 59.15625 -9.527344 59.273438 -9.761719 59.746094 -9.878906 C 59.863281 -9.996094 59.980469 -9.996094 60.332031 -9.996094 C 60.449219 -9.996094 60.804688 -9.878906 61.15625 -9.644531 C 58.921875 -11.878906 56.6875 -14.347656 54.570312 -17.289062 Z M 21.167969 -24.109375 L 22.699219 -31.164062 C 23.640625 -34.929688 23.640625 -39.75 24.34375 -43.398438 L 26.34375 -53.980469 C 27.285156 -50.335938 28.109375 -41.867188 29.402344 -38.222656 C 29.988281 -35.988281 30.8125 -33.871094 31.636719 -31.519531 L 33.871094 -26.34375 C 32.578125 -26.109375 31.285156 -25.875 29.988281 -25.519531 C 26.933594 -24.933594 24.109375 -24.578125 21.167969 -24.109375 Z M 21.167969 -24.109375 "/></g></g></g><g clip-path="url(#4ffa54b7ce)"><path fill="#ffffff" d="M 246.007812 62.03125 C 245.703125 62.28125 245.3125 63.90625 244.824219 66.925781 C 243.609375 74.664062 243.097656 77.152344 242.195312 79.796875 C 241.78125 81 240.648438 83.339844 240.1875 83.964844 C 239.75 84.539062 239.117188 84.90625 238.742188 84.804688 C 238.238281 84.667969 237.328125 83.722656 236.753906 82.730469 C 235.949219 81.316406 234.417969 77.792969 233.34375 74.871094 C 232.808594 73.421875 232.128906 71.691406 231.835938 71.023438 C 231.335938 69.878906 231.289062 69.804688 230.945312 69.804688 C 230.640625 69.804688 230.570312 69.867188 230.433594 70.296875 C 230.164062 71.089844 229.921875 73.242188 229.921875 74.804688 C 229.921875 77.9375 230.507812 79.949219 232.683594 84.210938 C 234.914062 88.585938 235.523438 90.195312 235.542969 91.695312 C 235.554688 92.4375 235.007812 93.863281 233.996094 95.742188 C 233.117188 97.375 232.730469 98.507812 231.871094 101.976562 C 231.40625 103.78125 230.929688 105.550781 230.800781 105.878906 C 230.664062 106.222656 229.878906 107.890625 229.03125 109.597656 C 227.367188 112.992188 225.941406 115.238281 224.46875 116.808594 C 224.019531 117.28125 222.753906 118.441406 221.644531 119.394531 C 220.535156 120.335938 219.234375 121.480469 218.734375 121.941406 C 216.894531 123.648438 212.609375 126.890625 210.539062 128.144531 C 209.386719 128.839844 207.957031 129.839844 207.230469 130.449219 L 205.953125 131.519531 L 206.195312 130.890625 C 207.449219 127.734375 208.875 123.480469 209.285156 121.601562 C 209.683594 119.875 209.820312 117.589844 209.601562 116.511719 C 209.421875 115.660156 208.980469 115.085938 208.503906 115.085938 C 208.023438 115.085938 207.84375 115.355469 207.457031 116.550781 C 206.933594 118.144531 205.132812 122.554688 204.378906 124.042969 C 203.5625 125.675781 201.761719 128.792969 200.820312 130.195312 C 200.445312 130.769531 199.785156 131.832031 199.359375 132.574219 C 198.019531 134.921875 195 139.226562 193.171875 141.386719 C 192.867188 141.742188 192.261719 142.308594 191.824219 142.644531 C 189.71875 144.238281 187.804688 146.152344 187.257812 147.234375 C 187.0625 147.625 187.050781 147.625 186.699219 147.445312 C 186.273438 147.222656 185.9375 147.222656 185.363281 147.433594 C 184.984375 147.578125 184.871094 147.566406 184.460938 147.359375 L 184 147.117188 L 183.65625 147.445312 L 183.328125 147.757812 L 182.609375 147.332031 C 182.210938 147.101562 181.78125 146.796875 181.660156 146.660156 C 181.257812 146.210938 180.90625 146.332031 180.441406 147.050781 C 179.835938 148 179.773438 148.035156 179.144531 147.753906 C 178.621094 147.511719 178.609375 147.511719 178.242188 147.742188 C 177.332031 148.328125 177.4375 148.351562 176.148438 147.363281 C 175.492188 146.875 174.410156 145.972656 173.742188 145.363281 C 173.070312 144.753906 172.265625 144.0625 171.960938 143.804688 C 170.453125 142.609375 169.199219 140.1875 167.953125 136.078125 C 167.503906 134.613281 167.042969 133.425781 166.3125 131.898438 C 165.097656 129.351562 164.5625 127.960938 163.570312 124.6875 C 163.15625 123.320312 162.632812 121.664062 162.390625 120.996094 C 162.148438 120.324219 161.65625 118.898438 161.308594 117.828125 C 160.515625 115.5 160.46875 115.378906 160.054688 115.207031 C 159.625 115.039062 159.175781 115.195312 158.898438 115.625 C 158.375 116.441406 158.367188 119.378906 158.890625 123.070312 C 159.046875 124.199219 159.242188 125.738281 159.316406 126.484375 C 159.546875 128.859375 159.695312 129.859375 160.058594 131.480469 C 160.363281 132.820312 160.582031 133.597656 161.261719 135.925781 C 161.324219 136.144531 160.992188 135.894531 160.121094 135.015625 C 158.949219 133.832031 156.6875 132.003906 155.09375 130.945312 C 154.097656 130.285156 152.28125 129.375 150.4375 128.617188 C 146.019531 126.804688 140.554688 123.292969 137.363281 120.210938 C 135.375 118.296875 133.917969 116.335938 132.335938 113.507812 C 130.800781 110.78125 130.441406 109.546875 129.5625 104.28125 C 129.394531 103.269531 129.144531 101.933594 129.027344 101.296875 C 128.894531 100.664062 128.671875 98.96875 128.539062 97.53125 C 128.171875 93.832031 128.066406 93.046875 127.835938 92.5625 C 127.433594 91.757812 126.871094 92.027344 126.519531 93.183594 C 126.078125 94.648438 125.375 100.058594 125.167969 103.503906 L 125.082031 104.898438 L 124.839844 104.421875 C 124.023438 102.839844 123.074219 99.550781 122.808594 97.414062 C 122.652344 96.125 122.785156 94.902344 123.355469 92.601562 C 123.867188 90.539062 124.496094 89.203125 127.507812 83.777344 C 127.863281 83.128906 128.300781 82.171875 128.480469 81.648438 C 128.785156 80.757812 128.824219 80.515625 128.824219 78.90625 C 128.835938 77.027344 128.71875 76.421875 128.28125 76.285156 C 127.828125 76.136719 127.574219 76.371094 126.601562 77.785156 C 126.066406 78.5625 125.15625 79.753906 124.570312 80.425781 C 123.996094 81.097656 123 82.300781 122.351562 83.109375 C 120.675781 85.238281 120.175781 85.726562 119.6875 85.726562 C 118.808594 85.726562 117.058594 83.707031 116.242188 81.757812 C 115.753906 80.585938 114.867188 77.457031 114.476562 75.550781 C 114.304688 74.746094 114.085938 73.1875 113.972656 72.082031 C 113.71875 69.265625 112.976562 64.199219 112.769531 63.792969 C 112.464844 63.195312 111.710938 63.121094 111.210938 63.636719 C 110.136719 64.757812 109.015625 68.988281 109.027344 71.933594 C 109.039062 74.605469 109.464844 77.015625 110.828125 82.050781 C 112.242188 87.300781 112.386719 88.011719 112.65625 91.59375 C 112.765625 92.945312 112.875 94.140625 112.898438 94.238281 C 112.921875 94.332031 113.035156 95.539062 113.140625 96.917969 C 113.726562 104.695312 114.617188 107.375 118.386719 112.710938 C 120.773438 116.097656 124.46875 120.230469 127.199219 122.5625 C 129.425781 124.476562 136.046875 129.191406 137.558594 129.949219 C 140.175781 131.265625 142.40625 132.546875 144.542969 133.972656 C 146.710938 135.417969 147.832031 136.042969 149.535156 136.789062 C 153.125 138.328125 155.816406 139.898438 157.847656 141.628906 C 158.675781 142.332031 160.464844 144.710938 161.230469 146.101562 C 162.046875 147.625 163.09375 150.367188 163.105469 151.039062 C 163.105469 151.292969 162.179688 150.355469 161.691406 149.625 C 161.472656 149.28125 161.09375 148.523438 160.863281 147.945312 C 159.964844 145.714844 158.675781 143.886719 156.75 142.097656 C 154.300781 139.84375 153.121094 139.257812 148.121094 137.882812 C 146.90625 137.539062 145.371094 137.148438 144.742188 137.015625 C 143.316406 136.722656 142.292969 136.429688 140.445312 135.785156 C 139.148438 135.335938 138.925781 135.296875 138.121094 135.347656 C 137.097656 135.40625 136.636719 135.628906 136.207031 136.269531 C 135.925781 136.660156 135.90625 136.84375 135.867188 138.167969 C 135.792969 140.519531 136.367188 146.089844 136.878906 148.125 C 137.539062 150.710938 138.949219 153.804688 140.433594 155.933594 C 143 159.589844 144.339844 160.90625 147.347656 162.722656 C 149.460938 164.003906 151.691406 164.820312 155.0625 165.542969 C 155.972656 165.722656 157.277344 166.066406 157.972656 166.296875 L 159.226562 166.695312 L 159.625 167.609375 C 159.84375 168.109375 160.660156 169.472656 161.4375 170.628906 C 162.214844 171.800781 162.925781 172.980469 163.007812 173.25 C 163.113281 173.628906 163.15625 175.355469 163.144531 179.832031 C 163.132812 183.171875 163.164062 186.167969 163.214844 186.484375 C 163.324219 187.167969 163.183594 192.300781 162.984375 194.542969 C 162.804688 196.628906 162.496094 198.648438 161.769531 202.527344 C 160.976562 206.78125 160.710938 207.875 159.613281 211.484375 C 158.09375 216.546875 157.070312 220.90625 156.726562 223.902344 C 156.558594 225.371094 156.558594 225.570312 156.714844 225.832031 C 156.851562 226.027344 157.019531 226.113281 157.273438 226.113281 C 157.640625 226.113281 157.652344 226.136719 157.578125 226.5 C 157.148438 228.804688 156.875 231.324219 156.8125 233.363281 C 156.738281 235.859375 156.945312 239.703125 157.15625 239.96875 C 157.238281 240.054688 157.398438 240.125 157.519531 240.125 C 157.800781 240.125 157.800781 240.160156 157.570312 241.46875 C 157.058594 244.378906 157.082031 247.011719 157.644531 250.167969 C 157.988281 252.09375 159.371094 256.84375 159.714844 257.261719 C 159.925781 257.515625 160.4375 257.46875 160.761719 257.175781 L 161.03125 256.90625 L 161.167969 257.234375 C 161.230469 257.414062 161.292969 257.621094 161.292969 257.683594 C 161.292969 257.757812 161.59375 258.5625 161.972656 259.476562 C 163.3125 262.742188 163.8125 264.609375 164.152344 267.664062 C 164.394531 269.792969 164.453125 270 164.917969 269.957031 C 165.167969 269.933594 165.34375 269.757812 165.671875 269.199219 L 166.085938 268.480469 L 166.328125 269.078125 C 166.464844 269.402344 166.914062 270.355469 167.351562 271.195312 C 168.265625 272.976562 168.667969 274.121094 168.777344 275.21875 C 168.902344 276.425781 169.058594 276.898438 169.332031 276.988281 C 169.722656 277.121094 170.128906 276.757812 170.683594 275.769531 C 170.976562 275.269531 171.242188 274.859375 171.292969 274.859375 C 171.4375 274.859375 172.351562 276.585938 172.609375 277.382812 C 172.753906 277.796875 172.9375 278.199219 173.035156 278.273438 C 173.339844 278.527344 173.707031 278.273438 174.0625 277.566406 C 174.34375 277.019531 174.425781 276.9375 174.476562 277.117188 C 174.511719 277.253906 174.757812 278.039062 175 278.886719 C 175.523438 280.6875 175.890625 281.558594 176.277344 281.90625 C 176.582031 282.199219 177.144531 282.261719 177.335938 282.011719 C 177.410156 281.929688 177.714844 280.941406 178.015625 279.808594 C 178.332031 278.6875 178.75 277.371094 178.941406 276.898438 C 179.546875 275.421875 181.691406 271.730469 181.839844 271.875 C 181.871094 271.898438 182.109375 272.597656 182.375 273.398438 C 182.738281 274.519531 182.917969 274.90625 183.148438 275.066406 C 183.671875 275.410156 183.945312 275.152344 184.972656 273.3125 C 186.617188 270.367188 187.464844 269.015625 188.636719 267.453125 C 189.257812 266.625 190.050781 265.453125 190.402344 264.867188 C 190.988281 263.851562 191.050781 263.796875 191.367188 263.851562 C 191.792969 263.9375 191.902344 263.800781 193.292969 261.621094 C 195.132812 258.730469 197.28125 254.359375 198.609375 250.816406 L 199.195312 249.265625 L 199.425781 249.621094 C 199.71875 250.09375 200.082031 250.21875 200.363281 249.925781 C 200.574219 249.703125 201.304688 246.90625 201.570312 245.304688 C 201.75 244.222656 202.417969 237.769531 202.628906 235.09375 C 202.691406 234.253906 202.75 233.996094 202.921875 233.910156 C 203.042969 233.847656 203.164062 233.714844 203.203125 233.617188 C 203.253906 233.511719 203.140625 232.535156 202.972656 231.449219 C 202.425781 227.875 201.890625 225.734375 200.625 221.894531 C 199.03125 217.082031 198.351562 214.230469 198.039062 211.171875 C 197.699219 207.671875 198.175781 196.464844 198.90625 190.890625 C 199.042969 189.855469 199.1875 188.453125 199.222656 187.78125 C 199.257812 187.109375 199.390625 186.230469 199.527344 185.832031 C 200.027344 184.226562 200.464844 181.671875 200.71875 178.703125 C 201.230469 173.023438 201.390625 172.027344 201.933594 170.867188 C 202.082031 170.585938 202.667969 169.796875 203.261719 169.097656 C 203.847656 168.414062 204.652344 167.34375 205.042969 166.71875 L 205.734375 165.574219 L 207.765625 164.945312 C 212.890625 163.320312 213.984375 162.773438 216.859375 160.460938 C 219.632812 158.214844 221.644531 155.839844 223.410156 152.683594 C 224.382812 150.941406 224.855469 149.675781 225.503906 147.203125 C 226.308594 144.078125 226.6875 142.789062 227.632812 139.886719 C 228.742188 136.460938 229.023438 135.195312 228.929688 133.882812 C 228.882812 133.042969 228.808594 132.769531 228.53125 132.308594 C 228.058594 131.554688 227.507812 131.261719 226.691406 131.34375 C 226.203125 131.378906 225.476562 131.6875 223.648438 132.589844 C 220.882812 133.941406 220.800781 133.984375 218.253906 135.015625 C 217.21875 135.441406 215.578125 136.15625 214.601562 136.597656 C 213.628906 137.046875 212.3125 137.621094 211.671875 137.875 C 208.847656 139.007812 207.15625 140.496094 205.0625 143.691406 C 203.472656 146.128906 203.042969 146.917969 202.582031 148.238281 C 202.375 148.8125 202.09375 149.589844 201.953125 149.96875 L 201.699219 150.671875 L 200.628906 149.0625 L 200.859375 147.9375 C 200.984375 147.320312 201.203125 146.523438 201.332031 146.171875 C 201.625 145.449219 202.839844 143.171875 203.460938 142.207031 C 204.445312 140.671875 207.4375 137.703125 211.433594 134.285156 C 213.957031 132.128906 215.132812 131.214844 217.824219 129.363281 C 222.933594 125.851562 227.179688 122.730469 228.875 121.25 C 229.433594 120.757812 230.339844 119.875 230.863281 119.277344 C 231.398438 118.691406 232.554688 117.449219 233.417969 116.519531 C 237.855469 111.792969 239.089844 110.328125 240.402344 108.242188 C 241.46875 106.527344 243.550781 101.933594 244.554688 99.054688 C 244.835938 98.25 245.382812 96.800781 245.769531 95.824219 C 246.15625 94.851562 246.710938 93.339844 246.984375 92.472656 C 247.886719 89.65625 248.921875 86.625 249.894531 83.910156 C 251.039062 80.765625 251.371094 79.351562 251.453125 77.351562 C 251.515625 76.082031 251.488281 75.863281 251.320312 75.683594 C 250.878906 75.253906 250.761719 75.398438 249.992188 77.421875 C 249.308594 79.175781 247.425781 83.492188 247.238281 83.675781 C 247.1875 83.726562 247.25 83.070312 247.375 82.210938 C 247.960938 77.996094 248.078125 76.71875 248.078125 74.582031 C 248.078125 72.070312 247.835938 68.769531 247.40625 65.296875 C 247.0625 62.617188 246.945312 62.128906 246.613281 61.945312 C 246.308594 61.78125 246.308594 61.78125 246.007812 62.03125 Z M 246.007812 62.03125 " fill-opacity="1" fill-rule="evenodd"/></g><g fill="#000000" fill-opacity="1"><g transform="translate(144.549487, 231.207397)"><g><path d="M 20.816406 -66.917969 L 20.226562 -66.566406 C 17.40625 -64.332031 14.9375 -61.390625 12.9375 -58.6875 C 11.054688 -55.511719 9.410156 -52.570312 8.113281 -49.394531 C 6.9375 -46.21875 5.996094 -42.925781 5.292969 -39.515625 C 4.941406 -36.8125 4.703125 -34.339844 4.703125 -31.636719 L 4.820312 -29.285156 C 4.941406 -25.636719 5.527344 -22.226562 6.585938 -18.816406 C 7.175781 -16.933594 7.761719 -15.40625 8.703125 -13.640625 C 9.644531 -11.878906 10.703125 -9.996094 11.996094 -8.585938 C 13.289062 -7.054688 14.582031 -5.527344 16.347656 -4.117188 C 18.230469 -2.824219 20.109375 -2 21.875 -1.175781 C 24.109375 -0.351562 25.875 0.351562 27.871094 0.46875 L 28.578125 0.46875 L 28.929688 0.589844 C 30.109375 0.824219 31.164062 0.941406 32.222656 0.941406 C 32.929688 0.941406 33.402344 0.941406 33.753906 0.824219 C 36.222656 0.707031 38.457031 0.351562 40.574219 -0.234375 L 42.222656 -0.589844 L 43.515625 -1.058594 C 44.925781 -1.410156 45.984375 -2 47.277344 -2.585938 C 49.511719 -3.761719 51.628906 -5.058594 53.394531 -6.585938 C 55.15625 -8.113281 56.804688 -9.878906 58.097656 -11.761719 C 61.039062 -15.523438 62.800781 -19.171875 64.332031 -23.523438 C 65.742188 -27.402344 66.449219 -31.753906 66.800781 -35.988281 L 66.917969 -39.046875 C 66.917969 -40.457031 66.800781 -41.984375 66.683594 -43.398438 C 66.449219 -46.101562 65.976562 -48.570312 65.273438 -51.042969 L 64.917969 -52.101562 C 64.332031 -54.097656 63.15625 -56.332031 62.214844 -58.332031 C 60.921875 -60.804688 59.273438 -63.15625 57.511719 -65.15625 C 56.453125 -66.214844 55.511719 -66.917969 54.21875 -67.859375 L 52.570312 -69.386719 L 50.6875 -70.328125 C 49.394531 -71.152344 47.867188 -72.09375 46.101562 -72.445312 C 44.808594 -72.800781 43.28125 -73.152344 41.75 -73.152344 L 36.8125 -73.152344 L 32.929688 -72.210938 C 30.695312 -71.621094 28.929688 -71.386719 27.519531 -71.035156 C 27.753906 -70.917969 27.871094 -70.683594 27.871094 -70.566406 L 27.992188 -69.386719 C 27.992188 -68.917969 28.109375 -68.683594 28.34375 -68.566406 L 30.929688 -67.269531 C 31.519531 -67.035156 31.988281 -66.683594 32.105469 -66.332031 L 32.105469 -65.507812 C 32.105469 -65.15625 31.402344 -64.917969 30.8125 -64.566406 C 29.988281 -63.976562 29.519531 -63.742188 29.167969 -63.390625 C 29.050781 -63.273438 28.929688 -62.921875 28.929688 -62.566406 L 28.929688 -62.097656 C 29.285156 -61.742188 29.402344 -61.507812 29.519531 -61.15625 C 29.519531 -60.921875 29.988281 -60.566406 30.929688 -60.214844 C 31.753906 -59.628906 32.222656 -59.390625 32.695312 -58.570312 C 32.8125 -58.449219 33.046875 -58.214844 33.164062 -57.863281 C 33.164062 -57.390625 33.164062 -57.15625 33.046875 -57.039062 C 33.046875 -56.6875 31.753906 -56.097656 33.753906 -56.214844 L 36.574219 -57.039062 C 37.632812 -57.273438 38.457031 -57.390625 39.164062 -57.390625 C 39.988281 -57.511719 40.339844 -57.628906 40.808594 -57.628906 L 41.984375 -57.511719 L 43.515625 -56.804688 L 44.21875 -56.214844 C 44.574219 -56.097656 44.808594 -55.863281 45.160156 -55.511719 L 46.691406 -53.980469 C 47.984375 -52.21875 49.277344 -50.453125 50.101562 -48.21875 L 50.335938 -47.394531 C 50.925781 -45.277344 51.277344 -43.160156 51.394531 -41.046875 L 51.394531 -39.28125 C 51.394531 -34.695312 50.570312 -30.226562 48.808594 -26.109375 C 47.511719 -23.402344 46.21875 -21.640625 44.691406 -19.875 C 43.867188 -19.050781 43.042969 -18.347656 41.984375 -17.757812 C 41.164062 -17.054688 40.339844 -16.582031 39.28125 -16.347656 L 38.929688 -16.113281 C 38.105469 -15.996094 37.988281 -15.878906 37.632812 -15.878906 C 37.046875 -15.523438 36.574219 -15.40625 35.753906 -15.289062 C 34.457031 -15.171875 33.402344 -15.289062 32.34375 -14.9375 C 31.046875 -15.054688 30.109375 -15.171875 29.167969 -15.523438 C 28.34375 -15.640625 27.519531 -15.996094 26.816406 -16.464844 C 25.992188 -16.816406 25.519531 -17.40625 24.933594 -17.992188 C 24.34375 -18.582031 23.640625 -19.289062 23.050781 -20.347656 C 22.226562 -21.40625 21.992188 -22.699219 21.523438 -24.109375 C 21.167969 -24.933594 20.933594 -25.757812 20.816406 -26.695312 C 20.464844 -28.226562 20.347656 -29.753906 20.347656 -31.519531 C 20.347656 -32.34375 20.347656 -33.28125 20.464844 -34.105469 C 20.816406 -36.8125 20.933594 -39.398438 21.757812 -41.867188 C 22.816406 -45.042969 24.226562 -47.984375 25.992188 -50.6875 C 27.871094 -53.394531 29.871094 -55.628906 32.34375 -56.804688 C 30.929688 -57.15625 28.8125 -55.039062 26.816406 -53.039062 C 26.226562 -52.101562 25.519531 -51.277344 24.699219 -50.335938 C 23.875 -49.277344 23.050781 -48.101562 22.464844 -46.808594 C 22.34375 -47.394531 22.226562 -47.984375 22.226562 -48.453125 L 22.226562 -48.925781 C 22.226562 -49.746094 22.464844 -50.453125 22.816406 -51.160156 C 23.402344 -52.570312 24.460938 -53.980469 25.992188 -55.277344 C 26.816406 -55.863281 27.402344 -56.570312 27.992188 -57.15625 C 28.8125 -57.628906 29.285156 -58.097656 29.636719 -58.6875 C 30.460938 -59.273438 30.578125 -59.390625 30.578125 -59.746094 C 30.578125 -59.863281 30.460938 -59.863281 30.226562 -59.863281 C 29.402344 -59.863281 27.753906 -58.921875 27.402344 -58.804688 C 27.050781 -58.804688 26.816406 -58.6875 26.460938 -58.6875 C 26.109375 -58.6875 25.757812 -58.804688 25.402344 -59.15625 L 24.816406 -60.566406 C 24.34375 -61.039062 24.109375 -61.742188 23.992188 -62.214844 L 23.402344 -64.214844 L 23.285156 -65.15625 C 23.167969 -65.625 22.933594 -65.976562 22.699219 -66.09375 C 22.34375 -66.683594 21.757812 -66.917969 20.816406 -66.917969 Z M 20.816406 -66.917969 "/></g></g></g></svg>