<?xml version="1.0" encoding="utf-8"?>
<!-- Uploaded to: SVG Repo, www.svgrepo.com, Generator: SVG Repo Mixer Tools -->
<svg width="800px" height="800px" viewBox="-147.36 0 446.199 446.199" xmlns="http://www.w3.org/2000/svg"><defs><style>.a{fill:#ffffff;}.b{fill:#211715;}.c{fill:#7a7473;}.d{fill:#85807f;}</style></defs><path class="a" d="M149.279,168.49c.275,6.279.283,10.868-1.086,13.971-1.287,2.917-5.46,8.315-9.578,10.568-4.282,2.343-8.67,4.46-12.939,6.339.249,3.628.449,6.417.439,9.6-.009,3.577,1.365,10.168-.881,13.313-28.226-.063-66.309-.132-86.447-.2-2.545-3.7-.459-11.048-.468-15.117-.012-5.27.217-11.494.24-17.233a21.762,21.762,0,0,1-13.292,2.413c-6.733-.707-12.391-6.2-14.435-12.662a43.2,43.2,0,0,1-1.514-9.165c-1.087-11.9-1.095-17.8-1.718-25.945l21.447-34.211A189.8,189.8,0,0,1,58.961,95.812a63.227,63.227,0,0,0,9.8,4.981,31.547,31.547,0,0,0,13.383,2.795,52.937,52.937,0,0,0,14.116-2.061,44.129,44.129,0,0,0,10.512-4.8c5.081,1.868,14.536,5.127,18.839,7.317a53.426,53.426,0,0,1,5.7,3.52c4.871,3.929,6.623,8.873,8.79,15.683,6.245,19.626,7.554,29.881,9.176,45.247"/><path class="a" d="M109.35,438.517q-.175-.163-.35-.328c-2.739-2.594-4.675-5.011-8.427-6.157a24.656,24.656,0,0,1-7.817-4.252c-2.445-2.279-1.939-6.349-1.823-9.431.074-1.946.49-7.033,1.351-9.057,0,0,.228-.538.6-1.424a46.862,46.862,0,0,0,8.6.867,58.056,58.056,0,0,0,12.208-1.277c5.443,7.481,12.54,13.943,19.173,20.545,2.229,2.218,4.131,5.187,3.866,8.32a7.7,7.7,0,0,1-3.381,5.463,13.8,13.8,0,0,1-6.2,2.182,23.417,23.417,0,0,1-14.583-2.993A18.134,18.134,0,0,1,109.35,438.517Z"/><path class="a" d="M28.874,440.309a7.116,7.116,0,0,1-1.754-3.986c-.265-3.133,1.637-6.1,3.865-8.32,6.611-6.579,13.68-13.018,19.117-20.473a57.11,57.11,0,0,0,11.827,1.205,45.783,45.783,0,0,0,9-.955l.643,1.512c.86,2.024,1.277,7.111,1.35,9.057.117,3.082.623,7.152-1.822,9.431a24.661,24.661,0,0,1-7.818,4.252c-3.751,1.146-5.687,3.563-8.426,6.157a19.257,19.257,0,0,1-3.571,2.786A23.417,23.417,0,0,1,36.7,443.968a13.8,13.8,0,0,1-6.2-2.182A8.77,8.77,0,0,1,28.874,440.309Z"/><path class="a" d="M109.807,47.99a4.507,4.507,0,0,1,3.261-1.194,4.186,4.186,0,0,1,3.76,2.089c1.277,2.216,1.223,6.3.366,8.825a13.637,13.637,0,0,1-4,6.488,4.969,4.969,0,0,1-3.834,1.107l-.368-.062a29.119,29.119,0,0,1-1.319,3.58c-.974,2.646-6.361,11.925-13.177,15.543.1,1.308.271,2.6.5,3.9.357,2.04.246,3.859,3.084,4.885.166.061,6.71,3.173,8.217,3.875a44.583,44.583,0,0,1-10.034,4.5,52.937,52.937,0,0,1-14.116,2.061,31.547,31.547,0,0,1-13.383-2.795,62.808,62.808,0,0,1-9.667-4.9c2.682-1.238,5.812-2.7,5.92-2.737,2.838-1.026,2.716-2.845,3.084-4.885.2-1.18.363-2.268.461-3.412a25.387,25.387,0,0,1-9.191-7.339,34.289,34.289,0,0,1-6.509-12.28,4.882,4.882,0,0,1-4.149-1.04,13.627,13.627,0,0,1-4-6.488c-.858-2.526-.912-6.609.366-8.825a4.185,4.185,0,0,1,3.76-2.089A4.509,4.509,0,0,1,52.1,47.99S45.955,23.132,80.23,23.132,109.807,47.99,109.807,47.99Z"/><path class="b" d="M123.675,199.364c.294,4.268.285,8.551.62,12.812a42.606,42.606,0,0,1,.2,5.464,5.7,5.7,0,0,1-1.3,3.93c-1.879,1.768.954,4.592,2.828,2.828,2.976-2.8,2.624-7.6,2.346-11.311-.341-4.569-.375-9.149-.69-13.723-.176-2.554-4.177-2.573-4,0Z"/><path class="c" d="M81.4,222.184c-16.5-.036-32.087-.072-42.678-.11C40.1,279.309,42.687,349,45.19,406.452a67.563,67.563,0,0,0,16.739,2.283c4.676-.071,10.349-.757,12.958-2.425,1.5-47.2,3.5-100.213,6.818-149.517,3.316,49.3,5.324,102.315,6.82,149.515,2.606,1.669,8.282,2.356,12.96,2.427a67.585,67.585,0,0,0,16.736-2.282c2.517-57.777,4.688-126.725,6.073-184.178C111.124,222.246,95.906,222.215,81.4,222.184Z"/><path class="b" d="M34.363,123.289c1.12,14.922,1.437,29.881,1.743,44.838.142,6.965.458,13.938.453,20.9,0,3.449-.083,6.9-.15,10.345-.058,2.951.069,5.941-.143,8.885-.365,5.077-2.418,12.136,1.911,16.137,1.888,1.746,4.723-1.076,2.828-2.828-1.523-1.408-1.53-3.725-1.47-5.661.077-2.471.508-4.909.709-7.369.237-2.887.1-5.83.156-8.726.064-3.307.142-6.614.157-9.921.03-6.791-.283-13.587-.423-20.377-.146-7.095-.279-14.192-.5-21.286-.259-8.321-.647-16.639-1.27-24.941-.192-2.551-4.194-2.572-4,0Z"/><path class="b" d="M124.622,166.744c-.118-14-.615-28.013,0-42,.113-2.574-3.887-2.568-4,0-.615,13.99-.118,28.008,0,42,.022,2.573,4.022,2.579,4,0Z"/><path class="b" d="M122.229,224.961q-.858,35.179-1.947,70.353-1.117,36.255-2.488,72.5-.738,19.321-1.573,38.639l1.468-1.928a65.76,65.76,0,0,1-16.2,2.21,45.022,45.022,0,0,1-6.53-.511,14.936,14.936,0,0,1-5.421-1.643l.991,1.727q-.891-28.1-1.986-56.186-1.159-29.055-2.7-58.092-.882-16.249-1.946-32.488c-.169-2.556-4.17-2.575-4,0,1.594,24.163,2.841,48.348,3.9,72.54q1.542,35.322,2.625,70.663c.045,1.4-.361,3.917.7,4.977a8.116,8.116,0,0,0,3.19,1.537,35.037,35.037,0,0,0,8.373,1.362c6.793.45,13.492-.664,20.08-2.239a2.041,2.041,0,0,0,1.468-1.929q1.53-35.155,2.725-70.326,1.258-36.251,2.269-72.508.541-19.328,1.014-38.658c.063-2.575-3.937-2.574-4,0Z"/><path class="b" d="M79.521,259.542Q77.617,288.4,76.3,317.3q-1.361,28.821-2.359,57.658-.558,15.678-1.05,31.356l.99-1.727a14.627,14.627,0,0,1-5.225,1.61,44.775,44.775,0,0,1-6.723.542,65.737,65.737,0,0,1-16.207-2.211l1.468,1.928q-1.542-35.416-2.871-70.841-1.367-36.4-2.482-72.808-.59-19.5-1.072-39.008c-.062-2.57-4.063-2.58-4,0q.865,35.439,2.093,70.868,1.229,36.4,2.7,72.8.785,19.5,1.632,38.989a2.049,2.049,0,0,0,1.469,1.929,69.187,69.187,0,0,0,18.058,2.337,48.336,48.336,0,0,0,7.951-.842,20.186,20.186,0,0,0,3.06-.828c1.032-.381,2.524-.87,2.986-1.967.5-1.191.245-3.049.286-4.333q.069-2.13.137-4.259.141-4.3.284-8.6.3-8.861.616-17.721,1.3-36.034,3.108-72.049,1.053-20.3,2.376-40.578c.17-2.57-3.831-2.56-4,0Z"/><path class="b" d="M69.64,409.824a24.523,24.523,0,0,1,1.216,7.364c.164,2.465.651,5.467-.269,7.823a5.245,5.245,0,0,1-2.288,2.395,25.757,25.757,0,0,1-4.089,2.168c-1.372.573-2.807.931-4.128,1.632a18.747,18.747,0,0,0-3.9,2.907c-2.5,2.324-4.667,4.684-7.833,6.129a21.456,21.456,0,0,1-9.928,1.881c-3.063-.153-6.709-.981-8.5-3.728s-.3-5.9,1.655-8.112c2.783-3.152,6.027-5.95,9-8.928,3.016-3.026,5.951-6.133,8.652-9.446a2.058,2.058,0,0,0,0-2.828,2.015,2.015,0,0,0-2.828,0c-2.7,3.313-5.637,6.42-8.653,9.445-2.968,2.979-6.212,5.777-9,8.929-2.5,2.831-4.4,6.63-3.374,10.481,1,3.764,4.354,6.283,7.939,7.365a24.2,24.2,0,0,0,22.644-5.414c2.579-2.387,4.7-4.861,8.118-6.013,2.982-1,6.489-2.578,8.672-4.922,2.671-2.869,2.33-6.983,2.165-10.6-.141-3.118-.253-6.661-1.421-9.589a2.064,2.064,0,0,0-2.461-1.4,2.014,2.014,0,0,0-1.4,2.461Z"/><path class="b" d="M67.752,102.52c9.334,4.145,19.356,3.53,29.04.936,2.484-.666,1.43-4.525-1.063-3.857-8.525,2.283-17.685,3.141-25.958-.533a2.063,2.063,0,0,0-2.736.717,2.016,2.016,0,0,0,.717,2.737Z"/><path class="b" d="M40.564,224.081q32.469.108,64.938.154l19.1.041c2.574.006,2.578-3.994,0-4q-34.261-.077-68.525-.151-7.757-.019-15.514-.044c-2.574-.009-2.578,3.991,0,4Z"/><path class="b" d="M104.661,98.057c5.127,1.964,10.341,3.692,15.441,5.73a45.9,45.9,0,0,1,6.2,2.929,21.569,21.569,0,0,1,6.019,4.565,23.564,23.564,0,0,1,4.157,7.463c1.309,3.5,2.379,7.109,3.443,10.695a186.925,186.925,0,0,1,4.734,19.393c1.193,6.509,1.932,13.081,2.627,19.658a2.058,2.058,0,0,0,2,2,2.014,2.014,0,0,0,2-2c-.656-6.205-1.346-12.411-2.39-18.564A178.714,178.714,0,0,0,144.4,130.5c-1.1-3.825-2.247-7.647-3.554-11.406a33.841,33.841,0,0,0-4.126-8.657c-3.136-4.392-7.846-7.245-12.738-9.344C118,98.528,111.8,96.527,105.724,94.2a2.016,2.016,0,0,0-2.46,1.4,2.045,2.045,0,0,0,1.4,2.461Z"/><path class="b" d="M90.355,408.76c-1.064,2.667-1.2,5.854-1.376,8.692-.19,3.1-.544,6.5.748,9.413,1.35,3.048,4.826,4.812,7.731,6.092a49.106,49.106,0,0,1,4.62,1.883,19.192,19.192,0,0,1,3.832,3.131,40.391,40.391,0,0,0,4.278,3.824,22.205,22.205,0,0,0,5.37,2.77,24.871,24.871,0,0,0,12.127,1.332c3.8-.533,7.563-2.136,9.692-5.483s1.544-7.425-.511-10.639a29.356,29.356,0,0,0-4.375-4.955c-1.694-1.666-3.4-3.321-5.085-4.994a138.362,138.362,0,0,1-9.957-10.745,2.014,2.014,0,0,0-2.829,0,2.047,2.047,0,0,0,0,2.828c4.837,5.932,10.423,11.174,15.858,16.543,2.1,2.077,4.776,4.806,4.22,8.065-.551,3.233-3.981,4.765-6.845,5.324A20.658,20.658,0,0,1,117.437,441a20.966,20.966,0,0,1-8.155-5.321c-2.322-2.278-4.656-4.362-7.782-5.446a20.431,20.431,0,0,1-7.33-3.866c-2.086-1.959-1.348-5.89-1.218-8.43a25.821,25.821,0,0,1,1.26-8.111,2.015,2.015,0,0,0-1.4-2.461,2.049,2.049,0,0,0-2.46,1.4Z"/><path class="b" d="M55.839,99.53c.9-.314,1.77-.766,2.635-1.162q2-.916,4-1.846,1.57-.728,3.139-1.454c.108-.05.219-.1.326-.149.089-.044.272-.119-.161.066-.516.221-.057.031.076-.022.257-.1.514-.206.762-.326a5.57,5.57,0,0,0,2.475-2.288,8.841,8.841,0,0,0,.839-2.943c.235-1.514.494-3.02.632-4.547a2.008,2.008,0,0,0-2-2,2.053,2.053,0,0,0-2,2,38.159,38.159,0,0,1-.928,5.51c-.06.248.194-.3.035-.1a1.73,1.73,0,0,0-.136.242c-.222.39.165-.105-.082.107a2.6,2.6,0,0,0-.221.213c.217-.246.134-.084.014-.012-.1.062-.2.128-.3.188-.038.021-.452.23-.3.159-.147.066-.7.288-1.024.437-2.227,1.023-4.447,2.064-6.674,3.087q-.867.4-1.736.791c-.184.083-.368.164-.552.246-.454.2.493-.184.119-.053a2.051,2.051,0,0,0-1.4,2.461,2.018,2.018,0,0,0,2.46,1.4Z"/><path class="b" d="M92.521,84.693c.129,1.425.335,2.839.569,4.25a16.547,16.547,0,0,0,.409,2.2,5.522,5.522,0,0,0,1.509,2.491,6.2,6.2,0,0,0,1.343.94,10.826,10.826,0,0,0,1,.435c.657.252-.459-.224-.209-.1,1.977,1.016,4.032,1.9,6.041,2.853.955.452,1.9.92,2.877,1.328a2,2,0,0,0,2.46-1.4,2.063,2.063,0,0,0-1.4-2.46c1,.418.059.009-.174-.1l-1.291-.608q-1.746-.825-3.491-1.653c-.9-.426-1.8-.853-2.7-1.274-.1-.046-.195-.092-.293-.136l-.075-.034c-.145-.064-.337-.144-.484-.2-.048-.02-.371-.164-.081-.027-.187-.089-.366-.188-.544-.292-.055-.032-.347-.228-.124-.07.2.14,0,0-.032-.033-.144-.143-.394-.473-.15-.107-.108-.162-.192-.341-.3-.5-.119-.177.1.168.074.185,0,0-.119-.349-.123-.365-.05-.167-.09-.337-.126-.507-.084-.4-.138-.806-.2-1.21-.2-1.318-.374-2.308-.492-3.608a2.044,2.044,0,0,0-2-2,2.023,2.023,0,0,0-2,2Z"/><path class="d" d="M63,37.85a86.485,86.485,0,0,0-6.288,6.267L52.1,47.99A4.509,4.509,0,0,0,48.837,46.8a5.389,5.389,0,0,0-1.407.225,38.063,38.063,0,0,1-1.413-11.408A34.57,34.57,0,0,1,60.291,8.564,33.844,33.844,0,0,1,80.869,2a34.277,34.277,0,0,1,21.359,7.134c6.452,4.872,12.937,13.245,13.5,26.481a36.749,36.749,0,0,1-1.377,11.369,5.6,5.6,0,0,0-1.28-.186,4.507,4.507,0,0,0-3.261,1.194l-4.577-3.626c-1.478-3.719-4.814-7.827-8.3-10.822a18.542,18.542,0,0,0-5.28-3.321l-5.734-.7c-3.866,1.629-9.319,5.051-12.379,6.751a1.047,1.047,0,0,1-1.492-1.125,5.517,5.517,0,0,0-.132-2.011c-.2-.84-.85-1.2-1.352-.933A41.515,41.515,0,0,0,63,37.85Z"/><path class="b" d="M53.512,46.575a6.917,6.917,0,0,0-7.533-1.123,6.575,6.575,0,0,0-3.442,4.427,16.545,16.545,0,0,0,2.4,13.057c1.693,2.52,4.366,4.789,7.606,4.369a2.066,2.066,0,0,0,2-2,2.011,2.011,0,0,0-2-2c-2.287.3-3.787-1.6-4.779-3.425a13.252,13.252,0,0,1-1.621-5.043,8.64,8.64,0,0,1,.867-5.271c-.315.5.513-.45.238-.246a2.078,2.078,0,0,1,.972-.444,2.722,2.722,0,0,1,2.462.528c1.915,1.709,4.754-1.11,2.828-2.829Z"/><path class="b" d="M111.221,49.4a2.692,2.692,0,0,1,2.33-.556,2.168,2.168,0,0,1,1.1.472c-.274-.2.547.733.238.246a5.314,5.314,0,0,1,.789,2.127,12.115,12.115,0,0,1,.079,3.144,13.277,13.277,0,0,1-1.622,5.043c-.992,1.829-2.49,3.722-4.779,3.425a2.01,2.01,0,0,0-2,2,2.052,2.052,0,0,0,2,2c5.278.685,8.517-5.018,9.835-9.284,1.182-3.823,1.135-9.763-2.605-12.211a6.879,6.879,0,0,0-8.2.765c-1.925,1.718.912,4.539,2.828,2.829Z"/><path class="b" d="M107.607,62.593a29.12,29.12,0,0,1-1.314,4.381c-.193.508-.358.848-.586,1.415-.2.507.136-.274-.036.088-.064.132-.123.266-.186.4a37.262,37.262,0,0,1-3.21,5.341c-2.8,3.961-6.619,8.285-11.532,9.439-2.5.589-1.445,4.447,1.063,3.858,5.794-1.362,10.253-6.2,13.61-10.84a38.153,38.153,0,0,0,3.488-5.708c.207-.429.392-.865.576-1.3.217-.519-.146.342.082-.19.15-.347.3-.695.437-1.046a29.152,29.152,0,0,0,1.465-4.771c.524-2.512-3.331-3.585-3.857-1.063Z"/><path class="b" d="M50.357,63.554c2.489,10.915,10.7,22.815,22.5,24.6a2.064,2.064,0,0,0,2.46-1.4,2.014,2.014,0,0,0-1.4-2.46c-10.5-1.585-17.494-12.108-19.7-21.8-.572-2.508-4.429-1.447-3.857,1.064Z"/><path class="b" d="M101.126,5.926a37.945,37.945,0,0,0-35.449-2.8A36.881,36.881,0,0,0,45.888,25.008a39.191,39.191,0,0,0-.525,22.023c.633,2.494,4.492,1.437,3.857-1.063C46.561,35.495,48.458,24.1,55.542,15.74a33.981,33.981,0,0,1,9.909-8.076A33.851,33.851,0,0,1,99.108,9.38c2.167,1.4,4.174-2.059,2.018-3.454Z"/><path class="b" d="M116.4,47.031a40.026,40.026,0,0,0-.664-22.517A35.549,35.549,0,0,0,106.02,9.685c-1.9-1.731-4.736,1.09-2.829,2.828a31.42,31.42,0,0,1,8.685,13.064,36.056,36.056,0,0,1,.664,20.391c-.609,2.5,3.248,3.567,3.857,1.063Z"/><path class="b" d="M75.328,72.817A12.3,12.3,0,0,0,81.257,74.2a9.76,9.76,0,0,0,6.089-1.84,2,2,0,0,0,0-2.828,2.062,2.062,0,0,0-2.829,0c.69-.537-.039,0-.258.112-.169.088-.626.23,0,.021-.162.054-.319.123-.483.175-.2.066-.414.122-.624.171a4.287,4.287,0,0,0-.727.138c.2-.091.316-.038.012-.008q-.2.019-.4.033c-.32.02-.64.028-.96.026q-.43,0-.861-.03c-.131-.009-.263-.02-.394-.033-.075-.007-.149-.016-.224-.025q-.234-.028.175.023c-.121.054-.515-.091-.647-.12-.207-.046-.413-.1-.616-.16-.177-.053-.349-.117-.524-.176-.453-.156.415.2,0,0q-.324-.153-.641-.32a2,2,0,1,0-2.019,3.453Z"/><path class="b" d="M80,59.161a26.48,26.48,0,0,1,.625,2.861l-.071-.531a1.739,1.739,0,0,1,.01.4l.072-.532a.985.985,0,0,1-.044.178l.2-.478a.634.634,0,0,1-.063.114l.313-.405a.584.584,0,0,1-.093.093l.4-.313a1.876,1.876,0,0,1-.226.12l.477-.2a1.684,1.684,0,0,1-.381.112l.531-.072a1.531,1.531,0,0,1-.358,0l.531.072c-.135-.019-.268-.052-.4-.07a1.522,1.522,0,0,0-.8-.036,1.484,1.484,0,0,0-.744.238,2,2,0,0,0-.717,2.736,1.913,1.913,0,0,0,1.195.919c.355.048.7.137,1.061.153a3.491,3.491,0,0,0,1.624-.395,2.457,2.457,0,0,0,1.328-1.608,3.82,3.82,0,0,0-.013-1.672c-.156-.921-.369-1.835-.606-2.739a2,2,0,0,0-2.46-1.4,2.03,2.03,0,0,0-1.2.919,2.1,2.1,0,0,0-.2,1.541Z"/><path class="b" d="M65.385,50.917c-.478,1.552-.167,5.124,2.775,5.428,3.888-.023,4.095-4.341,2.786-6.372C69.875,48.311,66.724,47.619,65.385,50.917Z"/><path class="b" d="M96.52,50.917c.477,1.553.166,5.124-2.775,5.428-3.888-.023-4.095-4.342-2.787-6.372C92.03,48.311,95.181,47.619,96.52,50.917Z"/><path class="b" d="M90.645,31.948A22.56,22.56,0,0,1,97.992,37.3a31.08,31.08,0,0,1,3.052,3.658c.47.67.913,1.36,1.318,2.071.184.324.361.652.528.984.1.194.188.391.281.587a1.384,1.384,0,0,1,.13.3,2.064,2.064,0,0,0,2.461,1.4,2.014,2.014,0,0,0,1.4-2.46,29.787,29.787,0,0,0-6.168-9.183,25.974,25.974,0,0,0-8.327-6.155,2.064,2.064,0,0,0-2.736.718,2.015,2.015,0,0,0,.717,2.736Z"/><path class="b" d="M58.124,45.531a83.109,83.109,0,0,1,7.355-7.207,44.6,44.6,0,0,1,3.681-2.905,20.885,20.885,0,0,0,1.9-1.212q1.006-.441-1.074-.543a1.614,1.614,0,0,1,.088.475,6.574,6.574,0,0,0-.027,1,3.08,3.08,0,0,0,3.48,3.193c1.422-.245,2.86-1.392,4.093-2.112a85.523,85.523,0,0,1,9.308-4.98,2.012,2.012,0,0,0,.717-2.736,2.052,2.052,0,0,0-2.736-.718A85.615,85.615,0,0,0,75.6,32.77c-.686.4-1.37.8-2.059,1.2q-.261.15-.523.3-1.016.432,1.028.877a2.273,2.273,0,0,0,.032-.919c-.079-1.842-.918-4.019-3.064-4.1-1.486-.058-3.008,1.223-4.16,2.042C65.4,33.2,64,34.326,62.65,35.495A83.4,83.4,0,0,0,55.3,42.7c-1.72,1.907,1.1,4.745,2.829,2.828Z"/><path class="a" d="M47.78,170.564c2.944-2.43,31.835-24.075,37.591-27.783,12.408,16.068,33.993,47.079,37.641,52.517-4.907,3.957-32.245,24.68-38.123,28.837-5.245-7.282-31.13-44.016-37.109-53.571Z"/><path class="b" d="M49.194,171.978q.3-.245.6-.483.2-.161.406-.318c.148-.116.639-.5.229-.179q1.385-1.07,2.78-2.126,4-3.041,8.029-6.048c6.151-4.605,12.319-9.191,18.547-13.692,2.172-1.571,4.338-3.168,6.59-4.624l-2.736-.718c11.452,14.842,22.219,30.239,32.909,45.635,1.588,2.286,3.18,4.571,4.732,6.882l.312-2.424c-9.936,8-20.758,15.96-31.251,23.777-2.144,1.6-4.285,3.2-6.467,4.748l2.736.717c-4.447-6.177-8.812-12.415-13.183-18.647-5.88-8.386-11.744-16.785-17.506-25.253-2.176-3.2-4.365-6.393-6.419-9.67-1.364-2.176-4.826-.171-3.454,2.019,4.329,6.906,9.067,13.572,13.707,20.27q8.621,12.443,17.361,24.8c2.006,2.839,4.01,5.678,6.041,8.5a2.029,2.029,0,0,0,2.736.718c10.936-7.746,21.529-16.027,32.154-24.191,2.134-1.64,4.277-3.271,6.374-4.959a2,2,0,0,0,.313-2.424c-9.135-13.6-18.722-26.936-28.4-40.157-3.038-4.152-6.1-8.286-9.246-12.359a2.043,2.043,0,0,0-2.736-.718c-4.974,3.217-9.7,6.867-14.462,10.381q-9.073,6.691-18.062,13.5c-1.833,1.391-3.694,2.758-5.471,4.219-1.99,1.636.854,4.452,2.828,2.828Z"/><path class="a" d="M122.622,166.744c-9.515,4.007-21.615,9.258-32.594,13.824a.987.987,0,0,0-.537,1.292c1.9,4.639,8.027,19.186,10.424,25.848a.991.991,0,0,0,1.209.616,196.009,196.009,0,0,0,37.491-15.3c4.118-2.253,8.291-7.651,9.578-10.568,1.369-3.1,1.361-7.692,1.086-13.971"/><path class="a" d="M90.57,185.978c-1.737-1.742-3.331-2.278-6.271-3.486a38.5,38.5,0,0,0-4.316-.927c-1.884-.284-3.27-.573-5.169-.721-2.513-.2-3.969-.433-5,.606a2.889,2.889,0,0,0-.77,2.32c.192,3.465,6.318,5.491,9.176,7.513a33,33,0,0,1-8.337,2.586,47.417,47.417,0,0,1-5.2-1.652,3.615,3.615,0,0,0-3.873,1.513,3.276,3.276,0,0,0,.795,4.087,13.294,13.294,0,0,0,1.961,1.23,6.714,6.714,0,0,0,.38,5.012,8.238,8.238,0,0,0,2.979,3.453,17.177,17.177,0,0,0,4.236,8.1c.873.98,4.009,1.811,4.968,1.594,8.237-1.86,14.755-6.312,21.283-11.668Z"/><path class="b" d="M77.215,189.557a31.537,31.537,0,0,1-7.86,2.383h1.064a42.827,42.827,0,0,1-5.04-1.591,5.5,5.5,0,0,0-6.128,2.137,5.292,5.292,0,0,0,.623,6.451c1.662,1.735,4.348,2.729,6.612,3.339,2.488.67,3.55-3.188,1.063-3.858a14.6,14.6,0,0,1-3.407-1.336,7.944,7.944,0,0,1-1.282-.819,1.207,1.207,0,0,1-.4-.675,1.06,1.06,0,0,1,.082-.854c.07-.142.193-.249.569-.445.739-.385.994-.153,1.844.153q1.4.5,2.827.93c.41.123.821.247,1.238.345a5.031,5.031,0,0,0,2.136-.035,36.959,36.959,0,0,0,8.079-2.672,2.012,2.012,0,0,0,.718-2.736,2.052,2.052,0,0,0-2.736-.717Z"/><path class="b" d="M61.646,198.517a9.659,9.659,0,0,0,4.278,10.722l-.919-1.195c.887,3.31,2.337,6.742,4.9,9.132a8.629,8.629,0,0,0,4.087,1.844,9.313,9.313,0,0,0,4.738-.409c7.592-2.182,14.064-6.711,20.107-11.655,1.994-1.631-.851-4.446-2.828-2.829a71.741,71.741,0,0,1-10.128,7.137,38.9,38.9,0,0,1-5.445,2.575q-1.466.548-2.972.972c-.477.134-.958.253-1.438.374s-.557.127-.234.06a4.018,4.018,0,0,1-.453-.023,5.143,5.143,0,0,1-3.3-1.651,14.214,14.214,0,0,1-2.5-4.359,15.84,15.84,0,0,0-.873-2.709c-.46-.786-1.482-1.175-2.044-1.936a5.459,5.459,0,0,1-1.113-4.986c.681-2.486-3.177-3.547-3.858-1.064Z"/><path class="b" d="M91.985,184.564a18.016,18.016,0,0,0-7.561-4.114,52.382,52.382,0,0,0-9.8-1.622c-2.885-.238-6.312-.3-7.348,3.094-.852,2.791.72,5.187,2.849,6.824,2.2,1.694,4.819,2.69,7.094,4.264a2.017,2.017,0,0,0,2.736-.717,2.04,2.04,0,0,0-.718-2.736c-2.061-1.427-4.438-2.336-6.475-3.8a7.675,7.675,0,0,1-1.1-.962,2.316,2.316,0,0,1-.581-.945c-.176-.743.112-1.126.815-1.17a23.685,23.685,0,0,1,4.633.352c1.7.241,3.418.509,5.1.866,2.648.562,5.558,1.566,7.533,3.5,1.842,1.8,4.673-1.025,2.829-2.828Z"/><path class="b" d="M122.091,164.816c-10.187,4.291-20.326,8.695-30.524,12.96-1.145.479-2.581.825-3.422,1.777a3.068,3.068,0,0,0-.39,3.307q.824,2,1.656,4,2.356,5.682,4.677,11.379,1.166,2.88,2.3,5.771a35.9,35.9,0,0,0,1.874,4.843c1.309,2.276,3.81,1.3,5.778.7s3.948-1.245,5.907-1.914a175.82,175.82,0,0,0,29.678-12.877A26.339,26.339,0,0,0,149.766,183.8c2.231-4.652,1.728-10.314,1.513-15.312-.111-2.564-4.111-2.578-4,0a51.983,51.983,0,0,1-.135,10.3,14.548,14.548,0,0,1-3.245,6.763,23.8,23.8,0,0,1-7.735,6.526c-3.589,1.913-7.256,3.68-10.974,5.329a197.993,197.993,0,0,1-19.553,7.445q-1.938.625-3.89,1.2c-.161.047-.673.1-.778.227s.674.737.8.677c.008,0-.117-.306-.12-.33a8.7,8.7,0,0,0-.626-1.675c-.991-2.608-2.028-5.2-3.075-7.784q-1.893-4.676-3.829-9.334-.779-1.88-1.558-3.758-.327-.788-.652-1.574l-.294-.711a1.452,1.452,0,0,0-.1-.241c-.156-.242.047-.231-.025-.057l-.515.883a5.249,5.249,0,0,1,1.657-.749q1.047-.436,2.092-.877,2.141-.9,4.278-1.8,4.236-1.792,8.464-3.6c5.228-2.231,10.452-4.472,15.69-6.679a2.067,2.067,0,0,0,1.4-2.46,2.012,2.012,0,0,0-2.46-1.4Z"/><path class="b" d="M5.6,144.369c.678,8.955.951,17.93,1.8,26.875C7.9,176.463,8.742,181.658,11.9,186a19.5,19.5,0,0,0,11.064,7.769,24.223,24.223,0,0,0,15.626-1.828A2.016,2.016,0,0,0,39.3,189.2a2.045,2.045,0,0,0-2.736-.717,20.087,20.087,0,0,1-11.84,1.572,15.234,15.234,0,0,1-9.589-6.375c-2.782-3.984-3.385-8.643-3.819-13.369q-.621-6.762-.987-13.544c-.23-4.135-.418-8.272-.731-12.4-.193-2.551-4.195-2.572-4,0Z"/><path class="b" d="M58.1,93.992a163.482,163.482,0,0,0-15.4,6.6,161.029,161.029,0,0,0-14.664,7.839c-2.19,1.346-.183,4.807,2.019,3.454a159.892,159.892,0,0,1,14.305-7.666,154.4,154.4,0,0,1,14.8-6.37c2.405-.864,1.368-4.731-1.063-3.857Z"/><path class="a" d="M6.09,134.263a30.205,30.205,0,0,0-2.259-3.822,9.049,9.049,0,0,1-1.87-5.725,10.5,10.5,0,0,1,.9-3.543c2.078-3.23,3.873-6.052,6.04-8.79a22.986,22.986,0,0,1,1.676-1.828,5.226,5.226,0,0,1,3.624-1.5,4.337,4.337,0,0,1,3.117,1.719c2.845.9,3.426-.883,4.689-1.876a4.922,4.922,0,0,1,4.82-.415,12.3,12.3,0,0,1,4.018,3.032,6.924,6.924,0,0,1,1.756,3.514,2.6,2.6,0,0,1-.768,2.32,4.187,4.187,0,0,1-3.242,1.186c.948,1.926,1.65,3.355,1.65,3.355a4.81,4.81,0,0,1,.371,2.024,3.315,3.315,0,0,1-.058.833,3.541,3.541,0,0,1-.348.82c-1.287,2.44-3.634,5.319-2.545,8.277,2.683,7.776,2.314,11.656-.208,13.855a18.3,18.3,0,0,1-6.908,3.676c-.707.147-3.962.7-4.619.4-1.292-.593-2.548-.885-3.5-2.035a8.863,8.863,0,0,1-1.58-3.314c-.394-1.426-1.6-4.956-2.51-7.254A53.113,53.113,0,0,0,6.09,134.263Z"/><path class="b" d="M19.216,110.08c-1.938-3.82-7.061-3.622-9.9-1.075-3.146,2.822-5.4,6.839-7.663,10.36a10.629,10.629,0,0,0-.668,10.171c.709,1.578,1.861,2.944,2.7,4.461s1.605,3.071,2.3,4.657c1.285,2.953,2.139,6.047,3.18,9.084a8.427,8.427,0,0,0,7.925,6.109,18.751,18.751,0,0,0,8.669-2.518c2.5-1.449,4.79-3.3,5.477-6.231.856-3.657-.257-7.636-1.4-11.1a4.376,4.376,0,0,1-.2-3.04,14.043,14.043,0,0,1,1.369-2.735,11.685,11.685,0,0,0,1.494-2.947,6.848,6.848,0,0,0-.314-3.92,2.062,2.062,0,0,0-2.46-1.4,2.014,2.014,0,0,0-1.4,2.46,2.955,2.955,0,0,1,.167,2.136,13.767,13.767,0,0,1-1.144,1.992,12.93,12.93,0,0,0-1.9,5c-.192,1.788.52,3.364,1.017,5.042a24.967,24.967,0,0,1,1,4.549,9.185,9.185,0,0,1-.078,2.892,3.717,3.717,0,0,1-.9,1.835,13.627,13.627,0,0,1-6.74,3.631,22.162,22.162,0,0,1-2.905.358c-.117.007-.72-.108-.25.025.142.041-.814-.338-.817-.339A4.541,4.541,0,0,1,13.9,148.4a9.746,9.746,0,0,1-1.4-3.429c-.455-1.461-.96-2.908-1.484-4.346A62.368,62.368,0,0,0,7.476,132.6c-1.332-2.5-3.716-4.875-3.515-7.886a7.31,7.31,0,0,1,1.4-3.726c1.123-1.743,2.251-3.484,3.455-5.172,1.032-1.447,2.192-3.316,3.725-4.276a2.182,2.182,0,0,1,3.223.557c1.165,2.3,4.617.274,3.454-2.019Z"/><path class="b" d="M13.666,121.164c.724-.994,1.47-1.973,2.217-2.95l.661-.86c.286-.372-.273.351.011-.014l.314-.405q.523-.675,1.056-1.344c.207-.26.409-.531.636-.774.058-.063.123-.116.182-.179-.22.231,0,.021.132-.078.2-.1.186-.1-.051,0a2.689,2.689,0,0,1,.292-.095q.338-.072-.087-.012a2.692,2.692,0,0,1,.3-.016,2.953,2.953,0,0,1,.3.015c-.284-.041-.315-.038-.09.008a2.891,2.891,0,0,1,.287.09c-.242-.107-.263-.111-.061-.012.145.1.376.253.118.042a4.792,4.792,0,0,1,.45.44c-.333-.354.058.132.124.228.1.2.095.179-.009-.068.036.092.069.185.1.28s.052.187.073.283c.041.224.038.189-.009-.107.061.036,0,.485-.008.555a2.008,2.008,0,0,0,2,2,2.053,2.053,0,0,0,2-2,5.582,5.582,0,0,0-2.421-4.851,4.955,4.955,0,0,0-5.388-.188,7.5,7.5,0,0,0-1.933,1.918q-1.206,1.527-2.384,3.075c-.762.995-1.521,1.992-2.259,3a2.008,2.008,0,0,0,.717,2.737,2.057,2.057,0,0,0,2.737-.718Z"/><path class="b" d="M19.733,122.919a35.966,35.966,0,0,1,3.315-3.512c.294-.268.594-.528.9-.787l.388-.329.2-.174c.055-.047.33-.3.085-.078s-.025.049,0,.022c.225-.262-.059.147-.142.055.008.008.613-.153.224-.068-.355.078.189.045.25.027-.27.079-.356-.079-.138-.013.105.033.217.069.323.091.2.041-.146-.053-.163-.076a1.538,1.538,0,0,0,.241.126,1.634,1.634,0,0,0,.229.148c.027.007-.363-.2-.173-.12.063.025.226.274.038.019-.175-.239-.04-.053-.011,0,.043.075.09.147.131.223l.061.118q.11.239.005.006l-.051-.114c.023.063.044.126.063.19s.032.129.052.192c.1.335-.034-.1-.006-.154a1.408,1.408,0,0,0,.014.242c.009.071-.032.287.019-.04.054-.355-.006-.031-.032.058-.007.025-.048.208-.071.215.094-.214.109-.253.046-.119-.023.048-.047.1-.072.143a13.6,13.6,0,0,1-1.02,1.634c-.051.071-.108.139-.157.211.387-.569.136-.178.031-.047-.181.226-.366.45-.552.672-.814.975-1.653,1.929-2.49,2.884A2,2,0,0,0,24.1,127.39c.862-.984,1.727-1.967,2.564-2.972a15.034,15.034,0,0,0,2.621-4.027,4.821,4.821,0,0,0-2.049-5.642,5.045,5.045,0,0,0-3.33-.6,5.149,5.149,0,0,0-2.563,1.448,37.117,37.117,0,0,0-4.436,4.491,2.044,2.044,0,0,0,0,2.828,2.023,2.023,0,0,0,2.828,0Z"/><path class="b" d="M21.264,112.276a9.84,9.84,0,0,0,1.294-1.124c.139-.146.275-.3.419-.437.094-.095.192-.187.293-.275q-.189.135-.022.021c.069-.047.625-.338.258-.182a3.49,3.49,0,0,1,.529-.166c.121-.03.556-.068.2-.047.253-.015.5-.006.753-.006.419,0-.224-.076.221.026.186.043.37.083.553.137.121.036.24.076.358.12q-.219-.1-.024-.013a7.017,7.017,0,0,1,.628.323,8.355,8.355,0,0,1,1.008.67c-.228-.178.328.285.38.331q.229.2.451.414c.319.3.635.609.933.931.067.069.131.141.193.215q-.164-.228.045.062c.111.166.219.333.319.506s.193.354.277.537c-.129-.281.135.393.157.465.058.192.108.386.148.581.045.214.053.259.022.135s-.032-.079-.019.135c.15-.518-.217.386-.055.1.152-.265-.434.48-.052.072-.081.086-.2.185-.275.279-.227.285.315-.177-.013.01-.178.1-.349.21-.533.3.316-.162-.006,0-.161.043-.037.01-.608.13-.205.074a4.181,4.181,0,0,1-.822.008,2.011,2.011,0,0,0-2,2,2.046,2.046,0,0,0,2,2,6.112,6.112,0,0,0,4.837-1.89,4.83,4.83,0,0,0,1.279-3,7.248,7.248,0,0,0-.772-3.15,11.528,11.528,0,0,0-3.549-4.18,9.205,9.205,0,0,0-5.612-2.254,6.526,6.526,0,0,0-3.244.809,6.448,6.448,0,0,0-1.317,1.027c-.192.188-.37.39-.558.583q-.105.108-.213.213c-.039.038-.364.31-.132.139a2.05,2.05,0,0,0-.718,2.736,2.023,2.023,0,0,0,2.737.718Z"/></svg>