<?xml version="1.0" encoding="utf-8"?>
<!-- Uploaded to: SVG Repo, www.svgrepo.com, Generator: SVG Repo Mixer Tools -->
<svg width="800px" height="800px" viewBox="-65.36 0 282.484 282.484" xmlns="http://www.w3.org/2000/svg"><defs><style>.a{fill:#ffffff;}.b{fill:#211715;}.c{fill:#3f88c9;}.d{fill:#79c6e0;}.e{fill:#ffda71;}</style></defs><path class="a" d="M96.428,93.513c-.29-.12-3.97-1.87-4.16-1.93-2.82-1.56-3.42-3.96-3.78-6.08-.149-.826-.239-1.455-.307-2,6.959-3.17,12.509-12.073,13.5-14.571.181-.511.583-1.557.888-2.757l.5.15a3.3,3.3,0,0,0,3.309-.774,10.961,10.961,0,0,0,2.831-3.715,17.228,17.228,0,0,0,1.756-9.13,5.752,5.752,0,0,0-.6-2.312,4.063,4.063,0,0,0-2.923-1.943,4.306,4.306,0,0,0-3.445,1.007,4.143,4.143,0,0,1-3.755.383,2.331,2.331,0,0,1-1.308-2.223,26.818,26.818,0,0,0-5.882-13.04c-1.116-1.293-3.06-3.126-4.636-3.611l-.867-.267a52.944,52.944,0,0,1-5.873,2.408c-1.516.52-3.522.906-4.63-.059-1.049-.914-.621-2.571-1.87-3.314a4.235,4.235,0,0,0-3.053-.07C61.435,32.338,55,38.826,51.04,47.061a4.2,4.2,0,0,1-3.651,2.763,3.838,3.838,0,0,1-1.724-.364,4.3,4.3,0,0,0-3.445-1.007A4.061,4.061,0,0,0,39.3,50.4a5.752,5.752,0,0,0-.6,2.312,17.228,17.228,0,0,0,1.756,9.13,10.948,10.948,0,0,0,2.831,3.715,4.113,4.113,0,0,0,3.73,1.179l.734-.2a30.971,30.971,0,0,0,6.137,10.43,27.263,27.263,0,0,0,9.8,7.235c-.048.371-.117.8-.207,1.3-.37,2.12-.97,4.52-3.78,6.08-.2.06-3.87,1.81-4.17,1.93,0,0,3.7,17.237,19.942,17.237S96.428,93.513,96.428,93.513Z"/><path class="a" d="M132.644,162.011a38.085,38.085,0,0,0,2.609,5.4,72.9,72.9,0,0,0,9.236,10.531c2.491,2.341,5.373,4.995,5.267,8.411a2.5,2.5,0,0,1-2.436,2.729c-2.2.285-4.338-.746-6.249-1.867a52.532,52.532,0,0,1-6.417-4.436c-.456,2.2-3.011,3.249-5.218,2.969a3.138,3.138,0,0,1-2.6-2.739c-.445-2.334-.778-4.445-.963-5.445-.2-1.078-.612-3.5-.914-4.556l-2.124-9.888"/><path class="a" d="M19.12,162.011a37.976,37.976,0,0,1-2.609,5.4,72.9,72.9,0,0,1-9.236,10.531c-2.491,2.341-5.373,4.995-5.267,8.411a2.93,2.93,0,0,0,.713,1.987,2.917,2.917,0,0,0,1.724.742c2.2.285,4.337-.746,6.248-1.867a52.532,52.532,0,0,0,6.417-4.436c.456,2.2,3.011,3.249,5.218,2.969a3.138,3.138,0,0,0,2.6-2.739c.445-2.334.778-4.445.963-5.445.2-1.078.612-3.5.914-4.556l2.124-9.888"/><path class="a" d="M56.7,275.084a25.345,25.345,0,0,1-4.771,3.7,15.91,15.91,0,0,1-9.292,1.548,9.763,9.763,0,0,1-4.689-1.848,6.663,6.663,0,0,1-2.558-4.625c-.2-2.653,1.239-5.166,2.925-7.044,3.948-4.4,8.114-8.721,11.716-13.452a1.87,1.87,0,0,1,2.227-.7c2.1.917,4.617.876,7.6.938a11.538,11.538,0,0,0,7.425-2.59c2.281-1.743,2.708,5.98,2.763,7.628.088,2.609.471,6.055-1.379,7.984-1.329,1.386-3.614,2.355-5.234,3.274A36.554,36.554,0,0,0,56.7,275.084Z"/><path class="a" d="M97.4,275.084a24.789,24.789,0,0,0,4.649,3.7,15.159,15.159,0,0,0,9.055,1.548,9.373,9.373,0,0,0,4.569-1.848,6.707,6.707,0,0,0,2.493-4.625c.195-2.653-1.207-5.166-2.85-7.044-3.848-4.4-7.907-8.721-11.418-13.452a1.8,1.8,0,0,0-2.17-.7c-2.044.917-4.5.876-7.4.938a11.071,11.071,0,0,1-7.237-2.59c-2.222-1.743-2.638,5.98-2.692,7.628-.086,2.609-.458,6.055,1.344,7.984,1.3,1.386,3.522,2.355,5.1,3.274A35.788,35.788,0,0,1,97.4,275.084Z"/><path class="a" d="M51.42,251.008c.448-4.233.577-13.532.687-20.9,5.123.049,13.048.043,18.146.015-.044.414-.072.692-.072.692-.434,3.963-1.6,13.5-2.275,19.684a11.846,11.846,0,0,1-8.056,3.1c-3.46-.072-6.3,0-8.577-1.461C51.325,251.82,51.374,251.44,51.42,251.008Z"/><path class="a" d="M101.99,251.686c-.513-3.594-1.03-13.792-1.141-21.232,0,0,0-.116,0-.331-5.269.039-12.723.031-17.431,0,.038.429.059.709.059.709.39,3.566.987,12.084,1.581,18.323,2.561,2.657,5.5,4.522,9.266,4.442,3.094-.066,5.68-.015,7.8-1.132C102.08,252.262,102.035,252,101.99,251.686Z"/><path class="b" d="M55.282,273.67c-2.407,2.221-4.729,3.94-8.016,4.585-3,.589-7.244.311-9.132-2.469-1.971-2.9.249-6.078,2.216-8.254,2.624-2.9,5.3-5.761,7.84-8.741q.915-1.074,1.8-2.17.443-.549.876-1.1c.167-.214.557-.956.828-1.028-.323.085.283.209.361.239a9.317,9.317,0,0,0,1.047.324,17.511,17.511,0,0,0,2.818.416c3.438.28,6.855.272,10.015-1.266a14.291,14.291,0,0,0,2.026-1.226c.631-.448.324-.176.243-.255l-.289.034a1.168,1.168,0,0,1-.878-.348c.258.072-.112-.223.045.074.264.5-.121-.389.1.2a9.985,9.985,0,0,1,.4,1.52,30.383,30.383,0,0,1,.464,4.766,17.425,17.425,0,0,1-.121,4.775c-.385,1.58-1.6,2.3-2.954,3.057a49.915,49.915,0,0,0-4.786,2.8,50.838,50.838,0,0,0-4.908,4.075c-1.9,1.75.937,4.573,2.828,2.829a38.207,38.207,0,0,1,5.193-4.192c1.559-1,3.278-1.721,4.829-2.732a8.03,8.03,0,0,0,3.464-4.116A14.891,14.891,0,0,0,72.1,260c-.11-2.772-.131-13.258-5.32-10.986a20.2,20.2,0,0,0-1.992,1.267,9.7,9.7,0,0,1-2.6,1.074,20.024,20.024,0,0,1-6.26.112c-1.8-.146-3.607-1.293-5.4-.778-2.013.579-3.283,3.039-4.552,4.554-2.959,3.533-6.188,6.823-9.2,10.3-2.771,3.2-4.51,7.531-2.471,11.581,2.175,4.321,7.519,5.722,12.005,5.275a18.167,18.167,0,0,0,6.9-2.036A25.938,25.938,0,0,0,58.11,276.5C60.006,274.749,57.172,271.926,55.282,273.67Z"/><path class="b" d="M50.108,230.044c-.062,4.16-.119,8.32-.24,12.479-.052,1.777-.114,3.555-.212,5.33-.041.756-.089,1.512-.152,2.266q-.036.422-.079.843c-.017.156-.035.313-.053.469-.039.331.068-.462-.007.047a2.065,2.065,0,0,0,1.4,2.46,2.015,2.015,0,0,0,2.46-1.4,82.552,82.552,0,0,0,.636-9.677c.129-4.272.186-8.546.25-12.82.039-2.575-3.961-2.576-4,0Z"/><path class="b" d="M68.181,230.82c-.74,6.734-1.6,13.455-2.332,20.19a2.012,2.012,0,0,0,2,2,2.047,2.047,0,0,0,2-2c.736-6.735,1.592-13.456,2.332-20.19a2.013,2.013,0,0,0-2-2,2.047,2.047,0,0,0-2,2Z"/><path class="b" d="M95.983,276.5c2.85,2.7,5.8,4.9,9.752,5.652,4.067.768,9.038.288,12.03-2.891s2.958-7.672.822-11.327a32.505,32.505,0,0,0-4-4.962c-1.492-1.678-2.989-3.352-4.453-5.055s-2.882-3.413-4.231-5.194a5,5,0,0,0-2.31-1.977,4.389,4.389,0,0,0-3.056.247,17.969,17.969,0,0,1-5.533.594,9.629,9.629,0,0,1-5.294-1.2c-1.259-.734-2.343-1.969-3.944-1.529a3.785,3.785,0,0,0-2.326,2.58,22.417,22.417,0,0,0-1.021,6.688c-.172,3.571-.551,7.823,2.434,10.416a36.916,36.916,0,0,0,5.352,3.307,34.993,34.993,0,0,1,5.78,4.655c1.869,1.769,4.7-1.055,2.829-2.829a40.578,40.578,0,0,0-8.584-6.388c-1.151-.624-2.65-1.283-3.341-2.46a7.334,7.334,0,0,1-.579-3.746,47.6,47.6,0,0,1,.365-5.943,17.676,17.676,0,0,1,.488-2.255c.008-.026.192-.665.079-.244.132-.494.12-.042.022-.129l.092-.1a1.21,1.21,0,0,1-.892.348c-.486,0-.689-.23-.071.221,2.966,2.162,6.115,2.681,9.707,2.588a23.818,23.818,0,0,0,4.46-.429,15.986,15.986,0,0,1,1.84-.612c-.327.021.169.384.33.589.392.5.774,1.009,1.166,1.509,2.3,2.925,4.774,5.707,7.246,8.486,2.087,2.346,5.445,5.237,5.024,8.748-.463,3.86-4.942,4.82-8.145,4.593-3.81-.27-6.538-2.25-9.207-4.778C96.943,271.9,94.11,274.724,95.983,276.5Z"/><path class="b" d="M98.849,230.454q.1,6.234.442,12.46c.171,3.173.33,6.37.8,9.516a2.014,2.014,0,0,0,2.461,1.4,2.049,2.049,0,0,0,1.4-2.46,1.889,1.889,0,0,1-.045-.338c-.031-.289-.065-.578-.095-.867-.071-.7-.131-1.4-.186-2.1-.144-1.82-.254-3.644-.351-5.467q-.321-6.063-.424-12.137c-.04-2.571-4.04-2.579-4,0Z"/><path class="b" d="M81.477,230.835c.753,6.968,1.093,13.976,1.846,20.944a2.059,2.059,0,0,0,2,2,2.012,2.012,0,0,0,2-2c-.753-6.968-1.093-13.976-1.846-20.944a2.059,2.059,0,0,0-2-2,2.013,2.013,0,0,0-2,2Z"/><path class="c" d="M54.166,230.129c-3.3-.02-5.917-.057-6.764-.116-.348-2.64.213-7.24-.072-11.411,0,0,0-1.086,0-2.562,1.41.1,2.72.168,3.83.192,6.956.148,25.934.741,26.222.741,5.859,0,15.58-.175,24.344-.471,1.681-.057,3.425-.193,5.139-.375-.037,1.443-.064,2.475-.064,2.475-.285,4.171.276,8.771-.072,11.411-2.606.182-21.949.152-26.713.082-.065-.211-.12-.368-.12-.368-.56-1.609-1.08-5.944-1.57-10.319H75.805c-.49,4.375-1.01,8.71-1.57,10.319,0,0-.055.157-.12.368C70.9,230.142,61.036,230.171,54.166,230.129Z"/><path class="d" d="M16.93,160.01q-.894-.468-1.771-.969c4.038-9.939,7.644-21.36,11.682-31.3,2.89-7.113,5.76-15.469,9.983-21.881S51.342,94.306,59.142,92.276A23.947,23.947,0,0,0,92,91.492c8.542,3.066,18.181,8.63,22.45,15.11,4.223,6.412,7.174,14.027,10.063,21.14,4.038,9.939,7.644,21.36,11.682,31.3a53.593,53.593,0,0,1-18.77,6.489l-3.8.716c.629,4.229,1.3,8.674,2.014,13.245,1.666,10.647,4.207,21.918,5.259,32.93a1.147,1.147,0,0,1-.907,1.45,99.41,99.41,0,0,1-18.268,2.631c-8.764.3-18.485.471-24.344.471-.288,0-19.266-.593-26.222-.741-5.222-.111-14.893-1.148-18.444-2.593a2.536,2.536,0,0,1-1.333-2.148c.211-7.018,1.4-12.886,2.333-19.926,1.084-8.144,2.416-17.064,3.687-25.308-1.778-.368-3.471-.727-3.471-.727A53.6,53.6,0,0,1,16.93,160.01Z"/><path class="a" d="M99.371,94.657A66.681,66.681,0,0,0,92,91.485a23.928,23.928,0,0,1-32.854.791,52.169,52.169,0,0,0-9.587,3.6,27.376,27.376,0,0,0,7.937,12.174l.141.068a10.547,10.547,0,0,0,2.68,1.69,11.241,11.241,0,0,0,8.7-.31,21.807,21.807,0,0,0,6.43-4.53,21.678,21.678,0,0,0,6.43,4.53,11.241,11.241,0,0,0,8.7.31,10.4,10.4,0,0,0,2.82-1.82l-.035.062A27.368,27.368,0,0,0,101.351,95.7Q100.37,95.161,99.371,94.657Z"/><path class="b" d="M45.33,218.6c.232,3.791-.368,7.64.072,11.411a2.068,2.068,0,0,0,2,2c4.162.273,8.38.131,12.548.135,4.721.006,9.444.014,14.165-.053a2.055,2.055,0,0,0,1.928-1.468c1.149-3.573,1.345-7.511,1.762-11.219a2.012,2.012,0,0,0-2-2,2.046,2.046,0,0,0-2,2c-.379,3.369-.576,6.909-1.619,10.155l1.929-1.468c-4.721.067-9.444.059-14.165.053-4.168,0-8.386.138-12.548-.135l2,2c-.44-3.771.16-7.62-.072-11.411-.156-2.557-4.157-2.575-4,0Z"/><path class="b" d="M104.8,218.6c-.231,3.791.368,7.64-.072,11.411l2-2c-4.162.273-8.38.131-12.547.135-4.722.006-9.445.014-14.166-.053l1.929,1.468c-1.043-3.246-1.24-6.786-1.619-10.155a2.059,2.059,0,0,0-2-2,2.013,2.013,0,0,0-2,2c.417,3.709.614,7.645,1.762,11.219a2.057,2.057,0,0,0,1.928,1.468c4.721.067,9.444.059,14.166.053,4.167,0,8.385.138,12.547-.135a2.071,2.071,0,0,0,2-2c.44-3.771-.159-7.62.072-11.411.157-2.571-3.844-2.562-4,0Z"/><path class="b" d="M38.824,139.787c-.872,9.512-2.283,18.941-3.727,28.378-1.489,9.731-2.783,19.488-4.231,29.224-.35,2.355-.692,4.713-.962,7.079a38.368,38.368,0,0,0-.5,7.383c.34,3.955,5,4.5,8.088,5.025a135.019,135.019,0,0,0,19.232,1.5q8.858.24,17.714.516c5.776.173,11.557.022,17.333-.107,4.644-.1,9.322-.11,13.95-.539a112.18,112.18,0,0,0,11.959-1.784,24.8,24.8,0,0,0,2.724-.62c2.16-.7,2.615-2.287,2.4-4.36-.526-5.108-1.328-10.185-2.21-15.242-1.74-9.972-3.463-19.928-4.955-29.942-1.232-8.27-2.382-16.558-3.784-24.8-.254-1.488-.519-2.975-.806-4.458-.489-2.524-4.345-1.455-3.857,1.064,3.165,16.335,4.848,32.934,7.77,49.314.87,4.876,1.789,9.744,2.572,14.635.376,2.349.723,4.7,1.006,7.065q.114.947.215,1.893c.031.3-.012,1.385.156,1.557.2.2.354-.631.429-.581a2.127,2.127,0,0,0-.481.126,100.9,100.9,0,0,1-21.879,2.542c-6.758.19-13.569.5-20.33.3q-7.452-.216-14.9-.441c-5.732-.164-11.49-.147-17.2-.709a57.8,57.8,0,0,1-9.8-1.595,4.655,4.655,0,0,1-1.267-.455c-.4-.641-.024-2.16.024-2.9.153-2.344.41-4.68.728-7.007Q36.15,187.811,38.26,173.8c1.377-9.146,2.867-18.274,3.9-27.468q.368-3.268.665-6.543a2.015,2.015,0,0,0-2-2,2.043,2.043,0,0,0-2,2Z"/><path class="b" d="M42.391,37.354A31.052,31.052,0,0,1,55.668,14.713,32.578,32.578,0,0,1,75,8.764a34.253,34.253,0,0,1,11.41,1.872,32.451,32.451,0,0,1,4.813,2.157,37.774,37.774,0,0,1,5.511,3.655c.659.573,1.628,1.515,2.266,2.16a30.115,30.115,0,0,1,4.188,5.3,31.626,31.626,0,0,1,4.552,15.311,42.467,42.467,0,0,1-.595,9.208,4.292,4.292,0,0,0-2.551.6l-1.239.727a4.017,4.017,0,0,1-2.674.536,2.071,2.071,0,0,1-1.195-1.03,6.942,6.942,0,0,1-.573-1.729,26.762,26.762,0,0,0-5.636-12.659,7.2,7.2,0,0,0-2.324-3.5,4,4,0,0,0-3.251-.749,52.335,52.335,0,0,1-6.033,2.488c-1.516.52-3.522.906-4.63-.059-1.049-.914-.621-2.571-1.87-3.314a4.235,4.235,0,0,0-3.053-.07C61.435,32.338,55,38.826,51.04,47.061c0,0-1.064,2.181-2.466,2.5a10.4,10.4,0,0,1-2.909-.1,4.211,4.211,0,0,0-2.615-1.04c.2,1.917-.97-5.079-.79-9.2Q42.3,38.268,42.391,37.354Z"/><path class="b" d="M56.06,95.442c1.417-.584,2.785-1.287,4.178-1.925l.316-.143c.249-.115-.549.229-.351.148s.39-.153.574-.251a8.6,8.6,0,0,0,1.871-1.395,9.043,9.043,0,0,0,2.162-3.451,17.473,17.473,0,0,0,.807-3.71,2.2,2.2,0,0,0-.2-1.541,2,2,0,0,0-3.655.477,20.8,20.8,0,0,1-.609,3.11c-.065.221-.142.437-.219.655a.823.823,0,0,0-.063.162c0,.008.184-.395.087-.208-.064.122-.116.251-.18.374a6.582,6.582,0,0,1-.4.677c-.042.062-.288.4-.1.151s-.116.127-.175.191c-.183.2-.382.38-.584.561-.275.247.267-.177-.046.04-.145.1-.29.2-.44.293-.369.229-.022.027.111.008a2.461,2.461,0,0,0-.523.22L58.357,90c-.664.3-1.323.614-1.982.924l-1.141.535c-.234.109-1.214.528-.237.126a2.2,2.2,0,0,0-1.2.919,2.043,2.043,0,0,0-.2,1.541,2.019,2.019,0,0,0,2.46,1.4Z"/><path class="b" d="M86.178,83.493c.336,2.608.682,5.323,2.339,7.468A8.619,8.619,0,0,0,90.1,92.532a8.416,8.416,0,0,0,1.011.694,4.131,4.131,0,0,0,.639.29c.108.038-.618-.274-.343-.144.662.312,1.328.614,1.99.925s1.339.653,2.023.943a2.2,2.2,0,0,0,1.541.2,2,2,0,0,0,.478-3.656c-.748-.317-1.477-.687-2.212-1.032q-.683-.32-1.365-.637c-.145-.067-.29-.134-.436-.2a5.584,5.584,0,0,0-.574-.243c-.155.031.432.237.2.054a4.824,4.824,0,0,0-.482-.31q-.273-.2.03.033c-.078-.062-.155-.127-.231-.193-.213-.185-.7-.539-.787-.818q.258.342.069.082c-.051-.072-.1-.145-.148-.219-.094-.145-.182-.3-.264-.447-.033-.061-.172-.441-.226-.456.117.286.136.329.055.131-.03-.077-.059-.155-.087-.233A12.167,12.167,0,0,1,90.5,85.43c-.073-.39-.14-.78-.2-1.171q-.05-.31-.095-.621c-.014-.094-.027-.187-.04-.282.041.308.048.354.019.137a2.053,2.053,0,0,0-2-2c-.969.044-2.143.889-2,2Z"/><path class="b" d="M105.4,50.875a2.22,2.22,0,0,1,3.226.53,5.426,5.426,0,0,1,.387,2.395,14.354,14.354,0,0,1-.206,2.891,15.273,15.273,0,0,1-2.046,5.409,7.507,7.507,0,0,1-1.608,1.884,1.472,1.472,0,0,1-1.563.414c-2.49-.664-3.552,3.194-1.063,3.857,3.162.844,5.64-1.188,7.364-3.648a18.433,18.433,0,0,0,2.989-8.312c.337-2.768.328-6.271-1.911-8.284a6.361,6.361,0,0,0-8.4.035,2.016,2.016,0,0,0,0,2.829,2.045,2.045,0,0,0,2.829,0Z"/><path class="b" d="M100.95,63.644a14.128,14.128,0,0,1-.942,4.033c-.086.242-.182.482-.26.726-.108.332.222-.41.038-.1-.156.266-.271.563-.416.837a34.372,34.372,0,0,1-3.158,4.836c-2.831,3.668-6.6,7.478-11.291,8.507-2.514.551-1.45,4.408,1.063,3.857,5.557-1.217,10.007-5.586,13.371-9.94,2.875-3.723,5.386-7.923,5.595-12.758.112-2.574-3.888-2.569-4,0Z"/><path class="b" d="M47.079,48.046a6.362,6.362,0,0,0-8.4-.035c-2.3,2.067-2.246,5.687-1.881,8.512a18.157,18.157,0,0,0,3.13,8.323c1.782,2.443,4.436,4.515,7.614,3.814A2,2,0,1,0,46.481,64.8c-1.344.3-2.781-1.476-3.433-2.457a15.044,15.044,0,0,1-2.176-5.5A14.359,14.359,0,0,1,40.634,54a5.712,5.712,0,0,1,.391-2.595,2.219,2.219,0,0,1,3.226-.53,2.055,2.055,0,0,0,2.828,0,2.016,2.016,0,0,0,0-2.829Z"/><path class="b" d="M44.724,63.09A33.109,33.109,0,0,0,52.33,78.22c4,4.532,9.348,8.281,15.44,9.149a2.067,2.067,0,0,0,2.46-1.4,2.013,2.013,0,0,0-1.4-2.46c-10.487-1.493-18.22-11.6-20.253-21.485-.519-2.52-4.375-1.453-3.857,1.063Z"/><path class="b" d="M109.107,48.74c1.457-8.956.56-18.445-4.436-26.226A34.643,34.643,0,0,0,84.041,7.842,37.031,37.031,0,0,0,58.46,10.656,34.513,34.513,0,0,0,44.41,24.2a33.279,33.279,0,0,0-3.946,12.477,43.89,43.89,0,0,0,.564,12.067,2.015,2.015,0,0,0,2.46,1.4,2.047,2.047,0,0,0,1.4-2.46c-1.042-6.437-.905-13.112,1.811-19.148A30.379,30.379,0,0,1,57.744,15.709c13.04-8.551,31.508-5.743,41.508,6.143,6.006,7.138,7.461,16.829,6,25.825a2.061,2.061,0,0,0,1.4,2.46,2.015,2.015,0,0,0,2.46-1.4Z"/><path class="b" d="M89.278,27.571a50.644,50.644,0,0,1-5.373,2.577c-1.458.588-3.43,1.645-5.059,1.5-.6-.055-.467-.008-.658-.557a6.754,6.754,0,0,0-.983-2.159c-1.291-1.613-3.363-1.662-5.237-1.279a31.89,31.89,0,0,0-16.832,9.673,37.083,37.083,0,0,0-5.823,8.73c-1.121,2.306,2.327,4.336,3.454,2.019a30.2,30.2,0,0,1,11.177-12.9,27.822,27.822,0,0,1,9.087-3.663,2.73,2.73,0,0,1,.912-.1c.262.047.137-.006.171.03.175.19.226.766.306,1a6.122,6.122,0,0,0,.5,1.158A4.638,4.638,0,0,0,79.2,35.638a18.419,18.419,0,0,0,5.98-1.717,59.755,59.755,0,0,0,6.119-2.9c2.259-1.237.242-4.692-2.019-3.454Z"/><path class="b" d="M91.628,35.994a28.232,28.232,0,0,1,1.909,2.719,27.815,27.815,0,0,1,1.609,3.008A24.006,24.006,0,0,1,96.2,44.573a25.413,25.413,0,0,1,.754,3.316,2.006,2.006,0,0,0,2.46,1.4,2.059,2.059,0,0,0,1.4-2.46,29.242,29.242,0,0,0-6.356-13.66,2.007,2.007,0,0,0-2.829,0,2.059,2.059,0,0,0,0,2.829Z"/><path class="b" d="M44.656,51.187a5.145,5.145,0,0,0,2.452.631A4.895,4.895,0,0,0,49.14,51.5a6.257,6.257,0,0,0,2.213-1.4,7.1,7.1,0,0,0,1.414-2.034,2.162,2.162,0,0,0,.2-1.541,2.038,2.038,0,0,0-.92-1.2,2.013,2.013,0,0,0-1.541-.2,1.958,1.958,0,0,0-1.2.919,6.293,6.293,0,0,1-.7,1.169l.313-.405a4.792,4.792,0,0,1-.788.8l.405-.312a4.088,4.088,0,0,1-.887.519l.478-.2a3.984,3.984,0,0,1-.889.243l.532-.072a3.825,3.825,0,0,1-1.014-.006l.531.072a3.857,3.857,0,0,1-.93-.228l.478.2a1.1,1.1,0,0,1-.172-.094,2,2,0,0,0-2.938,2.258,2.22,2.22,0,0,0,.919,1.2Z"/><path class="b" d="M96.919,47.626a4.475,4.475,0,0,0,2.246,3.913A6.158,6.158,0,0,0,105,51.187a2.016,2.016,0,0,0,.717-2.736,2.044,2.044,0,0,0-2.736-.717q-.253.132-.516.248l.478-.2a5.7,5.7,0,0,1-1.365.394l.532-.072a3.906,3.906,0,0,1-1.036.007l.532.072a2.968,2.968,0,0,1-.643-.174l.478.2a2.914,2.914,0,0,1-.621-.36l.405.313a2.453,2.453,0,0,1-.395-.394l.313.4a2.425,2.425,0,0,1-.285-.487l.2.477a2.913,2.913,0,0,1-.179-.661l.072.531c-.017-.135-.027-.269-.031-.405a2.087,2.087,0,0,0-.586-1.414,2,2,0,0,0-3.414,1.414Z"/><path class="b" d="M87.874,32.9c.131.042.26.09.387.143l-.478-.2A8.256,8.256,0,0,1,89.515,33.9l-.405-.313a17.741,17.741,0,0,1,2.518,2.406,2,2,0,0,0,3.414-1.414,2.22,2.22,0,0,0-.585-1.415,18.149,18.149,0,0,0-2.2-2.154,10.125,10.125,0,0,0-3.317-1.971,2.018,2.018,0,0,0-2.46,1.4,2.044,2.044,0,0,0,1.4,2.46Z"/><path class="b" d="M69.731,72.345a8.55,8.55,0,0,0,5.951,1.973,8.562,8.562,0,0,0,5.952-1.973,2,2,0,0,0-2.828-2.828c-.077.075-.371.31-.041.055s-.04.018-.137.078c-.118.072-.239.139-.362.2-.082.041-.174.073-.252.118.1-.058.464-.177.149-.069a8.368,8.368,0,0,1-1.206.33c-.151.028-.489.172-.019.014a1.631,1.631,0,0,1-.37.037q-.443.037-.886.037c-.27,0-.541-.01-.811-.03a2.708,2.708,0,0,0-.447-.044c.192-.023.352.053.048,0a7.393,7.393,0,0,1-1.223-.323c-.161-.059-.419-.229.1.05-.068-.036-.142-.064-.211-.1-.137-.068-.272-.141-.4-.221-.1-.061-.191-.136-.291-.2.577.351.277.224.114.064a2,2,0,0,0-2.829,2.828Z"/><path class="b" d="M74.7,59.8a26.3,26.3,0,0,1,.618,2.831l-.071-.532a1.7,1.7,0,0,1,.011.391l.071-.532a.887.887,0,0,1-.043.176l.2-.478a.688.688,0,0,1-.062.113l.312-.405a.528.528,0,0,1-.092.091l.405-.312a1.774,1.774,0,0,1-.224.118l.477-.2a1.641,1.641,0,0,1-.378.11l.532-.071a1.506,1.506,0,0,1-.355,0l.532.071c-.134-.018-.265-.051-.4-.069a1.522,1.522,0,0,0-.8-.036,1.493,1.493,0,0,0-.744.238,2,2,0,0,0-.717,2.736,1.91,1.91,0,0,0,1.2.919c.353.048.7.136,1.055.152a3.459,3.459,0,0,0,1.617-.394,2.455,2.455,0,0,0,1.325-1.6,3.788,3.788,0,0,0-.014-1.665c-.154-.912-.365-1.816-.6-2.711a2.064,2.064,0,0,0-.919-1.2,2,2,0,0,0-2.737.718,2.1,2.1,0,0,0-.2,1.541Z"/><path class="b" d="M60.43,52.215c-.462,1.5-.161,4.957,2.684,5.251,3.761-.023,3.961-4.2,2.7-6.164C64.772,49.694,61.725,49.026,60.43,52.215Z"/><path class="b" d="M90.42,52.215c.462,1.5.161,4.957-2.684,5.251-3.761-.023-3.961-4.2-2.7-6.164C86.077,49.694,89.125,49.026,90.42,52.215Z"/><path class="b" d="M57.728,93.69a25.936,25.936,0,0,0,34.417.392c1.973-1.658-.869-4.475-2.829-2.828a22.208,22.208,0,0,1-28.759-.392c-1.923-1.7-4.763,1.12-2.829,2.828Z"/><path class="b" d="M58.611,90.348c-9.46,2.5-19.46,7.584-24.595,16.234A106.624,106.624,0,0,0,26.9,122.188c-2.158,5.488-4.335,10.961-6.338,16.509-2.391,6.624-4.691,13.284-7.334,19.813a2,2,0,0,0,.919,2.258A56.116,56.116,0,0,0,33.4,167.459a2.066,2.066,0,0,0,2.46-1.4,2.014,2.014,0,0,0-1.4-2.46,53.1,53.1,0,0,1-18.292-6.288l.919,2.259c4.435-10.955,8.084-22.21,12.442-33.2a161.017,161.017,0,0,1,6.423-15.039,29.514,29.514,0,0,1,3.881-6.12,27.084,27.084,0,0,1,5.056-4.342,48.455,48.455,0,0,1,14.784-6.669c2.486-.658,1.432-4.518-1.063-3.857Z"/><path class="b" d="M91.737,93.512a60.133,60.133,0,0,1,13.565,6.973,33.851,33.851,0,0,1,5.342,4.54,29.348,29.348,0,0,1,4.021,5.758,125.032,125.032,0,0,1,6.938,15.058c2.1,5.183,4.073,10.406,5.962,15.67,2.17,6.044,4.3,12.108,6.705,18.062l.919-2.259A53.1,53.1,0,0,1,116.9,163.6a2.013,2.013,0,0,0-1.4,2.46,2.051,2.051,0,0,0,2.46,1.4,56.116,56.116,0,0,0,19.248-6.691,2.012,2.012,0,0,0,.919-2.258c-4.453-11-8.046-22.323-12.5-33.325a143.611,143.611,0,0,0-7.075-15.653A37.668,37.668,0,0,0,114.2,103a34.9,34.9,0,0,0-5.413-4.905A61.839,61.839,0,0,0,92.8,89.655c-2.419-.891-3.463,2.973-1.063,3.857Z"/><path class="b" d="M48.107,97.8c2.085,5.347,5.837,11.356,11.2,13.738,6.395,2.842,12.947-.743,17.554-5.153H74.028c2.743,2.626,5.97,5.02,9.757,5.822a12.407,12.407,0,0,0,11.022-2.8l-3.141-2.423-.035.061a2.009,2.009,0,0,0,3.141,2.424,29.271,29.271,0,0,0,7.97-11.667,2.014,2.014,0,0,0-1.4-2.46,2.047,2.047,0,0,0-2.46,1.4,25.134,25.134,0,0,1-6.941,9.9l3.141,2.423L95.12,109a2.01,2.01,0,0,0-3.142-2.424c-4.968,4.244-11.14.792-15.121-3.02a2.039,2.039,0,0,0-2.829,0c-3.388,3.243-8.644,6.7-13.424,4.183-4.03-2.122-7-6.8-8.639-11a2.061,2.061,0,0,0-2.461-1.4,2.015,2.015,0,0,0-1.4,2.46Z"/><path class="e" d="M69.417,169.454C58.75,152.269,47.7,117.377,45.546,96.51c1.222-1.112,7.241-4.389,8.8-4.389,1.445,17.222,14.556,59.7,24.038,72.444"/><path class="b" d="M71.143,168.445c-5-8.087-8.679-16.991-11.929-25.9a244.432,244.432,0,0,1-9.08-30.889A135.642,135.642,0,0,1,47.546,96.51l-.586,1.414c.3-.262-.263.124,0-.008a3.938,3.938,0,0,0,.389-.272c.324-.22.656-.426.991-.629.771-.466,1.56-.9,2.36-1.321.721-.376,1.454-.751,2.2-1.068a10.883,10.883,0,0,1,1.061-.392c.118-.036.238-.064.355-.1.491-.151-.366,0,.026-.013l-2-2c.841,9.787,3.46,19.5,6.166,28.9A247.345,247.345,0,0,0,70,153.365a64.575,64.575,0,0,0,6.653,12.21,2.06,2.06,0,0,0,2.736.717,2.013,2.013,0,0,0,.717-2.736,59.185,59.185,0,0,1-5.781-10.3c-2.209-4.748-4.12-9.631-5.9-14.554a277.183,277.183,0,0,1-9.618-32.447,105.448,105.448,0,0,1-2.464-14.136,2.033,2.033,0,0,0-2-2c-2.245.1-4.525,1.488-6.449,2.538a28.079,28.079,0,0,0-2.808,1.7A4.142,4.142,0,0,0,43.819,95.5a3.6,3.6,0,0,0-.13,2.308,155.912,155.912,0,0,0,3.19,17.548,239.694,239.694,0,0,0,12.193,37.761,124.027,124.027,0,0,0,8.618,17.346c1.35,2.186,4.812.18,3.453-2.018Z"/><path class="e" d="M75.143,193.733a5.849,5.849,0,0,1-1.722-1.725c-2.073-3.265-4.461-12.763-4.383-19.623.028-2.511,2.691-6.024,5.691-6.92,12-3.534,21.028-4.876,32.752-8.282a4.6,4.6,0,0,1,5.185,2.072c2.233,2.837,4.154,6.145,5.4,12.493.964,4.924.418,15.474-4.359,17.008a189.242,189.242,0,0,1-29.295,6.384l-1.327.118A12.562,12.562,0,0,1,75.143,193.733Z"/><path class="b" d="M71.941,165.053a7.91,7.91,0,0,0-3.858,3.421,9.574,9.574,0,0,0-1.17,5.707,54.707,54.707,0,0,0,1.877,11.7c.764,2.848,1.665,6.33,3.819,8.481,2.7,2.692,6.906,3.186,10.519,2.876a122.878,122.878,0,0,0,12.61-2.01c4.593-.883,9.164-1.906,13.673-3.155,3.338-.924,6.687-1.527,8.571-4.706a19.98,19.98,0,0,0,2.255-8.859,30.492,30.492,0,0,0-6.313-20.669,2.01,2.01,0,0,0-2.828,0,2.049,2.049,0,0,0,0,2.828,25.937,25.937,0,0,1,5.2,15.019,24.04,24.04,0,0,1-.881,7.578,8.767,8.767,0,0,1-1.257,2.654,2.515,2.515,0,0,1-.841.76,14.233,14.233,0,0,1-1.975.67,179.04,179.04,0,0,1-23.336,5.2c-3.139.51-6.524,1.243-9.677.448a5.638,5.638,0,0,1-3.252-1.877,10.925,10.925,0,0,1-1.322-2.762,49.346,49.346,0,0,1-2.534-10.645,24.2,24.2,0,0,1-.33-5.511,4.54,4.54,0,0,1,.941-2.163A5.8,5.8,0,0,1,73,168.91c2.389-.893,1.355-4.761-1.063-3.857Z"/><path class="b" d="M95.068,173l3.4-.7a2,2,0,0,0,.478-3.656l-.478-.2a2.018,2.018,0,0,0-1.063,0l-3.4.7a2,2,0,0,0-.477,3.656L94,173a2,2,0,0,0,1.064,0Z"/><path class="b" d="M88.955,182.383c3.964-.885,7.928-1.788,11.818-2.967,1.915-.58,3.81-1.225,5.686-1.922a27.894,27.894,0,0,0,5.9-2.668,13.175,13.175,0,0,0,3.909-3.635,9.181,9.181,0,0,0,.9-5.269,14.411,14.411,0,0,0-3.194-7.406,8.68,8.68,0,0,0-3.25-2.913c-1.986-.918-3.752-.387-5.755.173-4.235,1.183-8.512,2.2-12.795,3.191-4.224.976-8.451,1.939-12.644,3.042-3.215.846-10.533,1.9-8.284,6.927a50.909,50.909,0,0,0,5.936,10.56c2.863,3.681,7.549,3.784,11.779,2.887,2.516-.534,1.451-4.391-1.064-3.857-2.724.578-5.883.78-7.728-1.659a45.827,45.827,0,0,1-4.595-8.1,14.644,14.644,0,0,0-.773-1.638c.023,0,.671,1.983-.027.258.4.984-.173.1.009.179a8.444,8.444,0,0,0,1.034-.377q2.815-.818,5.656-1.55c3.562-.922,7.148-1.749,10.733-2.575,3.509-.808,7.016-1.623,10.5-2.532q1.44-.375,2.876-.772a12.475,12.475,0,0,1,2.659-.723A3.027,3.027,0,0,1,110.4,160.4a12.508,12.508,0,0,1,2.674,4.936,7.751,7.751,0,0,1,.1,1.845,10.089,10.089,0,0,1-.116,1.125,5.288,5.288,0,0,1-.131.686c.058-.192.119-.209,0-.008a8.84,8.84,0,0,1-2.759,2.494,26.749,26.749,0,0,1-5.568,2.447q-2.6.945-5.256,1.74c-3.772,1.126-7.613,2-11.453,2.857C85.38,179.086,86.443,182.943,88.955,182.383Z"/><path class="b" d="M17.393,161a35.562,35.562,0,0,1-2.874,5.767,60.46,60.46,0,0,1-4.539,5.562c-1.578,1.743-3.261,3.367-4.959,4.99A19.47,19.47,0,0,0,1.134,182a7.993,7.993,0,0,0-.879,5.954c.725,2.413,3.176,3.314,5.5,3.149a15.352,15.352,0,0,0,6.736-2.635,58.312,58.312,0,0,0,6.033-4.277l-3.342-.883c1.13,4.386,7.892,6.284,10.712,2.421,1.327-1.819,1.38-4.461,1.75-6.615.319-1.86.6-3.753,1.093-5.577.673-2.488-3.185-3.549-3.858-1.063-.761,2.816-1.105,5.767-1.623,8.635-.2,1.113-.16,2.628-1.566,2.681a2.454,2.454,0,0,1-2.651-1.545,2.028,2.028,0,0,0-3.343-.883,50.222,50.222,0,0,1-4.833,3.412c-1.544.961-3.258,2.105-5.108,2.329-.67.081-1.555.2-1.736-.562a3.482,3.482,0,0,1,.253-1.828,11.193,11.193,0,0,1,2.875-3.885,113.319,113.319,0,0,0,7.879-8.241,39.641,39.641,0,0,0,3.576-4.754,52.628,52.628,0,0,0,2.245-4.815,2.058,2.058,0,0,0-.718-2.737,2.016,2.016,0,0,0-2.736.718Z"/><path class="b" d="M130.918,163.021c.717,1.538,1.277,3.147,2.129,4.622a37.067,37.067,0,0,0,3.547,4.772,111.854,111.854,0,0,0,8.023,8.416,11.459,11.459,0,0,1,2.841,3.785,3.66,3.66,0,0,1,.287,1.928c-.17.708-.865.623-1.518.574-1.865-.14-3.581-1.266-5.13-2.221a50.3,50.3,0,0,1-5.029-3.532,2.028,2.028,0,0,0-3.343.883,2.457,2.457,0,0,1-2.651,1.545c-1.405-.053-1.366-1.575-1.566-2.681-.517-2.868-.862-5.819-1.623-8.635-.672-2.482-4.532-1.429-3.857,1.063.48,1.776.754,3.618,1.067,5.43.379,2.2.423,4.907,1.775,6.762,2.819,3.866,9.583,1.964,10.712-2.421l-3.342.883a58.312,58.312,0,0,0,6.033,4.277,15.352,15.352,0,0,0,6.736,2.635c2.324.165,4.775-.736,5.5-3.149a8,8,0,0,0-.88-5.954,19.446,19.446,0,0,0-3.887-4.682c-1.7-1.623-3.381-3.247-4.959-4.99a60.46,60.46,0,0,1-4.539-5.562A35.562,35.562,0,0,1,134.371,161a2.016,2.016,0,0,0-2.736-.718,2.045,2.045,0,0,0-.717,2.737Z"/><path class="e" d="M34.942,38.606a3.815,3.815,0,0,1,1.325-3.039,26.152,26.152,0,0,1,6.04-3.987c.013-.037.025-.077.037-.12a33.512,33.512,0,0,1,9.891-15.5,31.713,31.713,0,0,1,22.29-7.939c3.478.215,6.73.154,10.1,1.278,3.029,1.011,6.822,2.35,9.473,4.219a35.512,35.512,0,0,1,12.032,16.175,10.066,10.066,0,0,1,.441,1.41,27.7,27.7,0,0,1,7.037,4.464,3.746,3.746,0,0,1,1.3,3.3,3.3,3.3,0,0,1-1.417,2.8c-5.647,3.8-25.08,5.862-38.558,5.862-13.781,0-32.9-2.06-38.544-5.862a3.3,3.3,0,0,1-1.417-2.8C34.958,38.78,34.948,38.693,34.942,38.606Z"/><path class="b" d="M70.86,9.171c-4.681,2.008-7.613,7.2-8.921,11.9a67.24,67.24,0,0,0-2.292,14.417c-.131,2.573,3.87,2.566,4,0a63.7,63.7,0,0,1,1.988-12.755c1.035-3.962,3.167-8.362,7.244-10.111A2.011,2.011,0,0,0,73.6,9.889a2.052,2.052,0,0,0-2.736-.718Z"/><path class="b" d="M76.341,12.181c3.139,1.548,5,5.664,6.206,8.836a40.339,40.339,0,0,1,2.73,14.622c-.022,2.575,3.978,2.577,4,0a43.379,43.379,0,0,0-3.143-16.374c-1.559-3.879-3.818-8.587-7.774-10.538-2.3-1.135-4.33,2.314-2.019,3.454Z"/><path class="b" d="M106.588,33.319c1.717.872,7.882,3.63,6.137,6.347a5.444,5.444,0,0,1-2.3,1.346,32.427,32.427,0,0,1-3.485,1.121A106.511,106.511,0,0,1,87.1,45.064a165.429,165.429,0,0,1-21.158.211,124.936,124.936,0,0,1-20.84-2.6c-2.515-.571-5.244-1.168-7.321-2.493a1.965,1.965,0,0,1-.227-3.074,20.08,20.08,0,0,1,5.74-3.792c2.3-1.166.273-4.618-2.019-3.454-3.582,1.819-8.83,4.58-8.264,9.32a5.547,5.547,0,0,0,2.831,4.5,19.64,19.64,0,0,0,3.511,1.542c7,2.445,14.745,3.157,22.088,3.744a167.141,167.141,0,0,0,24.122.2c7.673-.5,15.566-1.235,22.991-3.331,2.885-.814,7.151-1.987,8.089-5.25a6.315,6.315,0,0,0-1.486-6.306,24.534,24.534,0,0,0-6.549-4.418c-2.291-1.163-4.317,2.287-2.019,3.454Z"/><path class="b" d="M97.734,32.271A49.364,49.364,0,0,1,89.883,34q-5.394.88-10.855,1.267a111.312,111.312,0,0,1-20.2-.758,63.3,63.3,0,0,1-8.175-1.274c-2.5-.622-3.564,3.234-1.064,3.857a62.855,62.855,0,0,0,7.4,1.2q5.271.657,10.58.977A104.568,104.568,0,0,0,89.3,38.113a55.077,55.077,0,0,0,9.5-1.985c2.425-.821,1.384-4.685-1.064-3.857Z"/><path class="b" d="M109.067,32.756a36.759,36.759,0,0,0-7.793-15.264,30.021,30.021,0,0,0-6.793-6.123,39.584,39.584,0,0,0-8.607-3.76C82.325,6.4,78.707,6.249,75,6.049a32.989,32.989,0,0,0-8.984.709,34.511,34.511,0,0,0-16.4,8.9,35.353,35.353,0,0,0-9.794,17.651c-.55,2.509,3.305,3.581,3.857,1.064A31.13,31.13,0,0,1,64.983,11.159a27.78,27.78,0,0,1,8.042-1.186,44.484,44.484,0,0,1,9.243.75,28.652,28.652,0,0,1,14.824,8.069,32.754,32.754,0,0,1,8.118,15.027c.572,2.509,4.429,1.447,3.857-1.063Z"/><path class="e" d="M72.272,2.824a4.59,4.59,0,0,0-2.32,4.319,3.609,3.609,0,0,0,1,2.426,4.308,4.308,0,0,0,3.732,1.164c1.99-.3,3.713-.907,4.375-2.287a4.411,4.411,0,0,0-.352-4.686C76.987,1.393,73.8,1.793,72.272,2.824Z"/><path class="b" d="M71.263,1.1a7.414,7.414,0,0,0-2.474,2.491,7.369,7.369,0,0,0-.834,3.739,5.878,5.878,0,0,0,5.536,5.435,9.177,9.177,0,0,0,4-.659,5.858,5.858,0,0,0,3.274-2.6,6.7,6.7,0,0,0,.575-4.862A6.554,6.554,0,0,0,78.654,1a7.034,7.034,0,0,0-7.391.093,2.036,2.036,0,0,0-.718,2.737,2.029,2.029,0,0,0,2.737.717c.121-.08.245-.155.374-.223.081-.042.169-.075.248-.12-.48.272-.334.13-.167.075.339-.113.7-.165,1.031-.272-.514.164-.319.037-.109.019.071-.006.143-.011.214-.015a5.439,5.439,0,0,1,.6.006c.091.006.184.024.274.026-.546-.009-.321-.054-.149-.009.2.052.4.106.593.163.394.113-.423-.224-.058-.029.067.036.137.068.2.105.1.056.2.122.3.181.35.2-.27-.244-.07-.065a5.839,5.839,0,0,1,.447.429l.042.047c.135.163.113.13-.069-.1.095.052.184.267.242.366.043.071.213.3.2.381.016-.156-.11-.321-.037-.081.042.137.09.27.124.409.009.035.13.49.045.156-.082-.318,0,.11.005.166,0,.123,0,.245,0,.368-.008.17.074.411.016-.008a1.413,1.413,0,0,1-.1.457,1.579,1.579,0,0,1-.149.463c.219-.29.042-.087-.023.04-.044.085-.1.164-.141.247-.18.334.263-.24.076-.089-.071.057-.13.143-.2.207-.048.047-.34.255-.061.069.3-.2-.042.022-.085.05-.1.066-.208.128-.316.185a3.581,3.581,0,0,0-.339.167c0-.063.436-.171.055-.031-.214.078-.43.146-.649.206s-.461.117-.694.165c-.12.025-.24.048-.361.07l-.294.049.223-.027a2.7,2.7,0,0,1-.828.024c-.436-.026.054-.014.052.017,0,0-.286-.059-.318-.067-.1-.025-.2-.054-.3-.086-.054-.018-.426-.166-.092-.025s-.012-.013-.066-.04c-.108-.056-.213-.117-.315-.181-.069-.043-.134-.09-.2-.135-.293-.194.331.291.161.124-.1-.095-.2-.18-.3-.279l-.045-.049q-.208-.246.059.084c-.056-.014-.154-.24-.185-.294-.041-.073-.161-.229-.158-.31.108.266.125.3.05.092-.022-.064-.041-.13-.058-.2a1.562,1.562,0,0,0-.071-.324q.057.48.035.154V7.143c0-.28.048-.556.06-.835-.023.567-.024.191.007.041.022-.114.048-.227.079-.338s.066-.209.1-.315c.1-.342-.216.423-.044.091.094-.179.194-.347.3-.52.155-.256-.118.151-.136.167.1-.087.176-.206.267-.3.146-.151.3-.286.464-.423.126-.109.222-.075-.143.109a3.791,3.791,0,0,0,.38-.269A2.039,2.039,0,0,0,74,1.815,2.026,2.026,0,0,0,71.263,1.1Z"/></svg>