<?xml version="1.0" encoding="utf-8"?>
<!-- Uploaded to: SVG Repo, www.svgrepo.com, Generator: SVG Repo Mixer Tools -->
<svg width="800px" height="800px" viewBox="-143.06 0 454.464 454.464" xmlns="http://www.w3.org/2000/svg"><defs><style>.a{fill:#ffffff;}.b{fill:#c6c6c6;}.c{fill:#211715;}.d{fill:#89705d;}.e{fill:#7a7473;}.f{fill:#c6a38b;}.g{fill:#645d5c;}</style></defs><path class="a" d="M149.159,233.977c-1.681,7.1-1.2,15.6-1.786,22.871a2.074,2.074,0,0,0,3.494,1.657c.652-.624,1.633-1.556,2.1-2.094A16.807,16.807,0,0,1,155.171,254a20.482,20.482,0,0,1,.462,5.546c-.236,6.415.1,6.049-1.387,12.558-.41,1.8-.107,3.257.36,3.594,2.978,2.157,6.53,0,8.28-2.284a14.067,14.067,0,0,0,1.889-3.464c2.493-6.371,1.642-12.5.1-19.162s-5.048-11.534-5.162-18.375Z"/><path class="a" d="M120.578,103.067c-2.446-1.157-6.822-3.235-6.963-3.282-2.852-1.032-2.743-2.868-3.1-4.932a42.525,42.525,0,0,1-.548-4.43c7-3.927,12.473-13.155,13.484-15.9.164-.5.5-1.433.8-2.546l.614-.094a7.778,7.778,0,0,0,3.617-1.63,11.745,11.745,0,0,0,3.034-3.982,18.455,18.455,0,0,0,1.882-9.786,6.157,6.157,0,0,0-.645-2.478,4.358,4.358,0,0,0-3.132-2.083,4.617,4.617,0,0,0-3.693,1.081s4.353-34.224-30.981-34.224S64.722,53,64.722,53s.145.967.205,1.339a4.29,4.29,0,0,0-4.621-2.418,4.358,4.358,0,0,0-3.132,2.083,6.157,6.157,0,0,0-.645,2.478,18.455,18.455,0,0,0,1.882,9.786,11.745,11.745,0,0,0,3.034,3.982,7.778,7.778,0,0,0,3.617,1.63l1.18.182a31.391,31.391,0,0,0,5.983,11.678,28.334,28.334,0,0,0,7.242,6.328,40.87,40.87,0,0,1-.578,4.782c-.368,2.064-.25,3.9-3.111,4.932-.109.039-3.173,1.469-5.853,2.7,0,0-2.092,19.633,24.13,19.633S120.578,103.067,120.578,103.067Z"/><path class="b" d="M57.653,34.613c-.571,6.837.13,13.448,2.446,17.367a.692.692,0,0,1,.207-.056A4.617,4.617,0,0,1,64,53.005L66.536,47.2c.427-5.758,3.417-16.944,10.216-20.708l2.126-1.177c6.348-2.786,10.042-3.1,15.356-3.487a46.835,46.835,0,0,1,14.325,3.086c11.048,4.128,14.629,18.179,14.615,22.286l2.751,5.809a4.621,4.621,0,0,1,3.679-1.083c4.2-13.53.861-24-4.255-33.075-3.164-5.614-11.044-13.461-24.4-16.252C95.657,1.488,84.562,1.329,76.665,7.163a26.16,26.16,0,0,1-2.953,2.169,22.365,22.365,0,0,1-2.1.931c-6.745,4.091-11.043,9.127-12.674,16.145A57.851,57.851,0,0,0,57.653,34.613Z"/><path class="c" d="M127.34,54.419a2.532,2.532,0,0,1,3.608.475,5.274,5.274,0,0,1,.508,2.666,15.653,15.653,0,0,1-.222,3.221c-.7,3.828-2.651,8.411-6.9,9.174a2.017,2.017,0,0,0-1.4,2.46,2.044,2.044,0,0,0,2.46,1.4c6.447-1.156,9.521-8.437,10.006-14.28.248-2.992.013-6.42-2.576-8.36a6.652,6.652,0,0,0-8.312.418,2.016,2.016,0,0,0,0,2.829,2.044,2.044,0,0,0,2.829,0Z"/><path class="c" d="M122.814,68.448a17.423,17.423,0,0,1-1.016,4.711c-.091.277-.2.552-.278.832-.037.125-.2.479.023-.033-.143.33-.3.654-.459.975a39.6,39.6,0,0,1-3.411,5.483c-2.978,4.085-7.021,8.411-12.122,9.608-2.5.587-1.445,4.445,1.063,3.857,6.068-1.424,10.776-6.386,14.346-11.219,3.084-4.175,5.639-8.907,5.854-14.214.1-2.574-3.9-2.569-4,0Z"/><path class="c" d="M65.413,51.59a6.653,6.653,0,0,0-8.312-.418c-2.591,1.935-2.824,5.372-2.576,8.36.485,5.843,3.56,13.124,10.006,14.28a2.057,2.057,0,0,0,2.46-1.4,2.017,2.017,0,0,0-1.4-2.46c-4.253-.763-6.2-5.346-6.9-9.174a15.568,15.568,0,0,1-.225-3.041,6.041,6.041,0,0,1,.436-2.723,2.519,2.519,0,0,1,3.683-.6,2.057,2.057,0,0,0,2.829,0,2.017,2.017,0,0,0,0-2.829Z"/><path class="c" d="M63.32,68.167a35.821,35.821,0,0,0,7.631,17.156c4.293,5.083,9.975,8.761,16.67,9.483a2.013,2.013,0,0,0,2-2,2.047,2.047,0,0,0-2-2c-5.751-.621-10.556-4.3-14.124-8.65-3.518-4.29-5.377-9.65-6.32-15.052a2.017,2.017,0,0,0-2.46-1.4,2.044,2.044,0,0,0-1.4,2.46Z"/><path class="c" d="M88.468,79.134c1.857,1.818,4.762,2.375,7.261,2.373s5.405-.555,7.263-2.373a2,2,0,0,0-2.829-2.829c-.077.076-.423.356-.111.117s-.135.084-.235.145c-.152.094-.308.179-.467.259a1.709,1.709,0,0,0-.325.153c.078-.111.4-.152.055-.031a10.6,10.6,0,0,1-1.554.425c-.047.009-.618.094-.178.038-.159.02-.318.036-.477.049-.38.032-.761.047-1.142.047-.349,0-.7-.012-1.045-.039-.192-.014-.385-.033-.576-.057.287.036.071.007-.092-.022a9.5,9.5,0,0,1-1.576-.417q-.1-.034-.189-.072-.215-.084.181.079c-.047-.058-.206-.095-.272-.127-.177-.087-.351-.181-.518-.285a4.175,4.175,0,0,0-.375-.253c.512.241.228.186.029-.009a2,2,0,0,0-2.828,2.829Z"/><path class="c" d="M94.632,65.41a28.2,28.2,0,0,1,.658,3.011l-.072-.532a1.809,1.809,0,0,1,.012.416l.071-.532a.983.983,0,0,1-.046.187l.2-.477a.741.741,0,0,1-.066.12L95.7,67.2a.605.605,0,0,1-.1.1l.405-.313a1.938,1.938,0,0,1-.238.127l.477-.2a1.7,1.7,0,0,1-.4.117l.532-.071a1.585,1.585,0,0,1-.377,0l.531.072c-.142-.02-.281-.055-.424-.074a1.523,1.523,0,0,0-.8-.036,1.48,1.48,0,0,0-.744.238,2,2,0,0,0-.717,2.736,1.913,1.913,0,0,0,1.2.919c.364.049.718.141,1.089.157a3.553,3.553,0,0,0,1.656-.4,2.49,2.49,0,0,0,1.35-1.629,3.884,3.884,0,0,0-.015-1.7c-.164-.97-.388-1.932-.637-2.883a2.067,2.067,0,0,0-.919-1.2,2,2,0,0,0-2.737.718,2.1,2.1,0,0,0-.2,1.541Z"/><path class="c" d="M81.556,61.545c1.217-.369,2.436-.729,3.651-1.105a2.1,2.1,0,0,0,1.2-.919,2,2,0,0,0-2.259-2.938c-1.214.376-2.433.736-3.65,1.105a2.094,2.094,0,0,0-1.195.919,2,2,0,0,0,2.258,2.938Z"/><path class="c" d="M110.89,57.614c-1.22-.368-2.462-.656-3.679-1.031a2,2,0,0,0-2.46,1.4,2.025,2.025,0,0,0,.2,1.542,2.145,2.145,0,0,0,1.2.919c1.217.375,2.459.663,3.678,1.031a2,2,0,0,0,2.461-1.4,2.027,2.027,0,0,0-.2-1.541,2.134,2.134,0,0,0-1.195-.919Z"/><path class="c" d="M110.608,74.259q-.185-.212-.357-.434l.312.405a12.463,12.463,0,0,1-1.342-2.208,1.923,1.923,0,0,0-1.993-.955,1.492,1.492,0,0,0-.744.237,2.017,2.017,0,0,0-.919,1.195l-.071.532a1.987,1.987,0,0,0,.273,1.009,13.685,13.685,0,0,0,2.013,3.048,1.489,1.489,0,0,0,.643.413,2.06,2.06,0,0,0,2.185-.413,2.012,2.012,0,0,0,.586-1.414l-.072-.532a2,2,0,0,0-.514-.883Z"/><path class="c" d="M68.98,47.2a29.545,29.545,0,0,1,.763-4.664,37.4,37.4,0,0,1,1.782-5.654c1.385-3.378,3.464-6.835,6.681-8.663,2.237-1.272.224-4.729-2.019-3.454-3.984,2.264-6.53,6.315-8.263,10.437a38.932,38.932,0,0,0-2.944,12,2.017,2.017,0,0,0,2,2,2.038,2.038,0,0,0,2-2Z"/><path class="c" d="M108.472,26.838c4.742,1.817,8.115,5.9,10.316,10.345a30.219,30.219,0,0,1,2.19,5.959c.211.82.378,1.647.52,2.481.1.585,0-.1.032.222.014.137.031.274.043.412.027.313.044.625.045.939.01,2.574,4.01,2.579,4,0-.015-4.187-1.626-8.576-3.489-12.257a23.992,23.992,0,0,0-12.594-11.958,2.016,2.016,0,0,0-2.46,1.4,2.044,2.044,0,0,0,1.4,2.46Z"/><path class="c" d="M87.376,24.412a9.889,9.889,0,0,1,.5-1.568l-.2.478a10.114,10.114,0,0,1,1.26-2.173l-.313.4a10.125,10.125,0,0,1,1.771-1.782l-.405.313a9.776,9.776,0,0,1,1.469-.933,2.015,2.015,0,0,0,.718-2.737,2.048,2.048,0,0,0-2.737-.717,11.7,11.7,0,0,0-5.917,7.65,2,2,0,0,0,3.857,1.064Z"/><path class="c" d="M95.822,24.367c.313-.288.638-.561.969-.829-.325.263.118-.083.234-.164q.259-.184.527-.359a18.352,18.352,0,0,1,2.315-1.246c.265-.123-.311.118-.037.016.1-.037.2-.079.3-.116q.3-.114.6-.215.6-.2,1.224-.358t1.249-.259c.049-.008.4-.068.128-.023s.078-.01.129-.015c.238-.027.476-.048.715-.065a2,2,0,0,0,0-4,18.366,18.366,0,0,0-11.179,4.805,2.014,2.014,0,0,0,0,2.828,2.043,2.043,0,0,0,2.828,0Z"/><path class="c" d="M132.017,50.787a41.16,41.16,0,0,0,.992-16.941,45.987,45.987,0,0,0-4.885-14.077A35.917,35.917,0,0,0,110.875,3.756,38.753,38.753,0,0,0,84.288,1.341a28.289,28.289,0,0,0-7.035,3.02c-1.927,1.18-3.5,2.828-5.591,3.738A27.614,27.614,0,0,0,60.9,17.186c-3.4,4.723-4.527,10.481-5.129,16.16s-.6,11.9,1.487,17.29a2.06,2.06,0,0,0,2.461,1.4,2.017,2.017,0,0,0,1.4-2.461c-1.716-4.43-1.847-9.355-1.534-14.041.308-4.6.966-9.583,3.15-13.711a25.079,25.079,0,0,1,8.714-9.091c1.66-1.083,3.494-1.692,5.089-2.94a25.491,25.491,0,0,1,5.771-3.545C89.873,3.05,98.5,3.419,106.081,6.1c6.821,2.414,13.45,6.949,17.22,13.2a44.548,44.548,0,0,1,5.464,13.512,36.18,36.18,0,0,1-.606,16.9c-.659,2.491,3.2,3.554,3.858,1.063Z"/><path class="d" d="M49.787,110.451a61.173,61.173,0,0,1,7.7-4.347A167.562,167.562,0,0,1,75.36,98.88l.521.58c3.534,3.937,18.012,19.244,19.643,20.9,1.759-1.912,16.253-17.394,20-22.032a171.2,171.2,0,0,1,19.517,7.781c5.842,2.793,12.1,6.735,16.135,12.011a34.237,34.237,0,0,1,7.006,15.927c2.623,20.4,3.906,39.46,4.8,59.6.514,11.564,1,23.129,1.578,34.689a2.415,2.415,0,0,1-2.261,2.492l-20.159,1.787s-1.058.094-2.114.2c-.064-1.379-.115-4.431-.154-8.308-16.709-.028-78.659-.391-88.966-.391h-.284c.182-4.453.536-14.251.536-25.47,0-1.642.016-7.37.037-14.479l-.019.122a242.552,242.552,0,0,1-8.3,35.222c-3.14,0-23.133-5.884-23.813-6.785,1.234-4.483,7.813-33.771,9.7-43.317,1.332-7.232,3.826-21.659,5.576-30.423,1.291-6.471,3.5-16.275,7-20.866A35.478,35.478,0,0,1,49.787,110.451Z"/><path class="a" d="M91,115.614c-1.169-1.233-2.478-2.616-3.828-4.048,1.09-1.316,2.27-2.741,3.315-4.019a47.146,47.146,0,0,0,3.034-3.919,1.173,1.173,0,0,0,.17-.828h3.395a1.178,1.178,0,0,0,.169.828,47.5,47.5,0,0,0,3.035,3.919c1.055,1.291,2.247,2.73,3.346,4.057-3.867,4.194-7.31,7.88-8.111,8.751C95.017,119.842,93.272,118.012,91,115.614Z"/><path class="a" d="M102.037,415q-.4-.294-.782-.6.017-1.362.022-2.725a168.832,168.832,0,0,0,19.517.719,29.742,29.742,0,0,0,1.38,4.343,3.964,3.964,0,0,1-1.608,1.893,8.37,8.37,0,0,1-4.278.966A23.912,23.912,0,0,1,102.037,415Z"/><path class="a" d="M68.986,417.309a4.073,4.073,0,0,0,1.324,1.32,8.365,8.365,0,0,0,4.278.966A23.925,23.925,0,0,0,89.619,414.4q-.012-1.387-.022-2.774a166.751,166.751,0,0,1-19.515.775,29.917,29.917,0,0,1-1.381,4.334A3.515,3.515,0,0,0,68.986,417.309Z"/><path class="c" d="M68.925,405.477A28.713,28.713,0,0,1,65.741,418.4a2.046,2.046,0,0,0,.717,2.736,2.022,2.022,0,0,0,2.737-.717,33.156,33.156,0,0,0,3.73-14.94,2,2,0,0,0-4,0Z"/><path class="c" d="M87.56,406.517l.086,12.459a2,2,0,0,0,4,0l-.086-12.459a2,2,0,0,0-4,0Z"/><path class="c" d="M117.95,405.477a33.17,33.17,0,0,0,3.731,14.94,2,2,0,0,0,3.454-2.019,28.7,28.7,0,0,1-3.185-12.921,2,2,0,0,0-4,0Z"/><path class="c" d="M99.315,406.517l-.085,12.459a2,2,0,0,0,4,0l.085-12.459a2,2,0,0,0-4,0Z"/><path class="e" d="M48.321,448q-.174-.227-.329-.47a8.8,8.8,0,0,1-.583-7.379,24.168,24.168,0,0,1,3.787-6.608q5.483-7.486,11.588-14.49c1.586-1.82,3.38-3.717,5.752-4.164a3.568,3.568,0,0,0,1.774,3.742,8.365,8.365,0,0,0,4.278.966,23.743,23.743,0,0,0,16.619-6.614c-.027,5,.023,6.663,0,11.664a10.5,10.5,0,0,1-.438,3.607c-1.028,2.78-4.076,4.119-6.522,5.792-6.363,4.355-9.714,12.3-16.382,16.171a17.217,17.217,0,0,1-15.914.57A10.026,10.026,0,0,1,48.321,448Z"/><path class="e" d="M142.555,448c.116-.151.225-.308.329-.47a8.808,8.808,0,0,0,.582-7.379,24.143,24.143,0,0,0-3.787-6.608q-5.481-7.486-11.587-14.49c-1.587-1.82-3.38-3.717-5.753-4.164a3.569,3.569,0,0,1-1.773,3.742,8.37,8.37,0,0,1-4.278.966,23.746,23.746,0,0,1-16.62-6.614c.028,5-.022,6.663,0,11.664a10.48,10.48,0,0,0,.438,3.607c1.028,2.78,4.076,4.119,6.521,5.792,6.364,4.355,9.715,12.3,16.383,16.171a17.215,17.215,0,0,0,15.913.57A10.038,10.038,0,0,0,142.555,448Z"/><path class="c" d="M50.048,446.989c-1.765-2.411-1.3-5.449-.01-7.976a55.535,55.535,0,0,1,5.738-8.271q3.174-4.14,6.56-8.113c1.828-2.152,3.806-5.161,6.732-5.814l-2.46-2.46a5.829,5.829,0,0,0,3.883,6.568c2.632,1.032,5.781.761,8.511.323A25.442,25.442,0,0,0,92.621,414.4l-3.414-1.414c-.022,4.261.165,8.553-.021,12.81-.093,2.138-1.178,3.407-2.892,4.565a57.814,57.814,0,0,0-5.2,3.609c-6.047,5.129-9.633,13.856-17.854,16-4.468,1.166-10.438.409-13.5-3.383a2.014,2.014,0,0,0-2.829,0,2.047,2.047,0,0,0,0,2.828c3.11,3.85,8.921,5.341,13.677,5.007a20.358,20.358,0,0,0,12.98-6.145c3.2-3.156,5.678-6.959,8.877-10.118a31.092,31.092,0,0,1,5.264-3.947,11.813,11.813,0,0,0,4.659-4.621c1.259-2.721.855-6.042.848-8.965-.006-2.547-.017-5.095,0-7.642a2.022,2.022,0,0,0-3.414-1.414,21.433,21.433,0,0,1-9.4,5.292,20.486,20.486,0,0,1-6.213.725c-1.137-.045-4.061-.4-3.718-2.166a2.027,2.027,0,0,0-2.46-2.46c-3.578.8-5.931,3.833-8.189,6.481q-4.028,4.719-7.783,9.662c-4.039,5.3-10.39,13.142-5.439,19.907a2.059,2.059,0,0,0,2.736.717A2.015,2.015,0,0,0,50.048,446.989Z"/><path class="c" d="M144.282,449.008c4.949-6.764-1.4-14.611-5.44-19.907q-3.764-4.933-7.782-9.662c-2.258-2.648-4.611-5.683-8.189-6.481a2.027,2.027,0,0,0-2.46,2.46c.342,1.767-2.586,2.121-3.719,2.166a20.458,20.458,0,0,1-6.213-.725,21.439,21.439,0,0,1-9.4-5.292,2.022,2.022,0,0,0-3.414,1.414c.012,2.268.006,4.537,0,6.805a48.068,48.068,0,0,0,.188,7.676c.813,5.082,5.969,6.587,9.377,9.57,3.39,2.968,5.9,6.763,8.939,10.058,3.234,3.5,7.2,6.272,11.984,7.069,5.372.895,12.207-.282,15.814-4.747a2.059,2.059,0,0,0,0-2.828,2.013,2.013,0,0,0-2.828,0c-2.682,3.32-7.739,4.319-11.788,3.739-4.286-.615-7.624-3.08-10.478-6.2-2.743-3-5.056-6.374-8-9.183a30.345,30.345,0,0,0-4.906-3.7c-1.437-.9-3.228-1.88-3.929-3.522a11.052,11.052,0,0,1-.371-4.221q0-1.775,0-3.549c.007-2.323.014-4.646,0-6.969L98.254,414.4a25.448,25.448,0,0,0,13.62,6.851c2.665.427,5.737.7,8.324-.252a5.867,5.867,0,0,0,4.07-6.639l-2.46,2.46c2.862.639,4.785,3.527,6.578,5.633q3.458,4.063,6.713,8.294a57.651,57.651,0,0,1,5.643,8.083c1.343,2.571,1.9,5.681.086,8.164a2.015,2.015,0,0,0,.717,2.736A2.046,2.046,0,0,0,144.282,449.008Z"/><path class="a" d="M58.65,403.06c-.491-21.167-1.332-74.782-2.992-102.36-1.7-28.278-3.036-59.42-4.709-76.589,10.706,0,73.83.359,88.509.369-1.656,17.235-2.983,48.14-4.673,76.22-1.986,33-2.8,103.27-3.245,110.636-4.933,1.645-26.926,1.411-36.319-.542-9.392,1.953-31.385,2.187-36.318.542C58.83,410.126,58.747,407.22,58.65,403.06Z"/><path class="c" d="M137.447,224.579c-1.439,15.131-2.125,30.339-2.948,45.512-.8,14.723-1.769,29.441-2.39,44.173-.533,12.633-.89,25.273-1.206,37.912q-.457,18.227-.8,36.454c-.147,7.227-.215,14.463-.509,21.686-.014.34-.029.68-.049,1.02l1.468-1.929a12.934,12.934,0,0,1-1.908.429c-.631.1-1.357.179-2.307.26-2.357.2-4.725.283-7.09.317a164.564,164.564,0,0,1-16.543-.562,64.473,64.473,0,0,1-7.407-.985c-2.513-.514-3.587,3.341-1.063,3.857a96.587,96.587,0,0,0,15.388,1.557,138.3,138.3,0,0,0,16.109-.135,25.605,25.605,0,0,0,5.884-.881,2.074,2.074,0,0,0,1.469-1.928c.374-6.315.352-12.669.482-18.992q.364-17.68.763-35.361c.308-12.818.653-25.637,1.151-38.449.542-13.964,1.448-27.91,2.206-41.864.863-15.889,1.6-31.8,2.912-47.657q.183-2.219.393-4.434a2.014,2.014,0,0,0-2-2,2.043,2.043,0,0,0-2,2Z"/><path class="c" d="M49,224.579c1.438,15.131,2.124,30.339,2.948,45.512.8,14.723,1.769,29.441,2.39,44.173.533,12.633.889,25.273,1.206,37.912q.458,18.227.8,36.454c.147,7.227.215,14.463.509,21.686.014.34.029.68.049,1.02a2.077,2.077,0,0,0,1.468,1.928,23.337,23.337,0,0,0,5.042.812c2.384.214,4.78.3,7.172.335a163.813,163.813,0,0,0,17-.586,73.082,73.082,0,0,0,8.165-1.1c2.52-.516,1.454-4.372-1.063-3.857A90.5,90.5,0,0,1,80.2,410.287a140.215,140.215,0,0,1-15.694-.123,18.965,18.965,0,0,1-5.07-.757l1.468,1.929c-.375-6.315-.352-12.669-.482-18.992q-.364-17.68-.763-35.361c-.308-12.818-.654-25.637-1.151-38.449-.543-13.964-1.448-27.91-2.206-41.864-.863-15.889-1.6-31.8-2.912-47.657q-.183-2.219-.393-4.434a2.055,2.055,0,0,0-2-2,2.014,2.014,0,0,0-2,2Z"/><path class="c" d="M93.438,272.894c-.55,6.034-.48,12.138-.461,18.19.021,6.9.147,13.8.194,20.7.052,7.6,0,15.2-.02,22.8q-.033,15.88-.06,31.761-.022,14.9-.01,29.8.007,4.966.038,9.935c.012,1.521-.047,3.072.083,4.59a2.286,2.286,0,0,0,1.01,1.847,2.011,2.011,0,0,0,2.736-.717,2.051,2.051,0,0,0-.717-2.737h0l.717.717c.111.206.247,1.339.243.685,0-.244-.017-.488-.023-.732-.021-.871-.029-1.744-.038-2.616-.029-3.085-.037-6.171-.044-9.257q-.031-14.292,0-28.583.021-15.928.059-31.855.022-11.144.037-22.287c0-12.887-.6-25.81.016-38.69.057-1.186.131-2.371.239-3.554a2.016,2.016,0,0,0-2-2,2.042,2.042,0,0,0-2,2Z"/><path class="f" d="M16.187,433.785c1.471-30.337,6.755-179.768,7.516-184.6l-9.313-1.726c-.316,4.962-6.805,162.94-7.871,184.593Z"/><path class="c" d="M8.519,432.054c.43-8.753.788-17.509,1.164-26.264q.953-22.173,1.88-44.348,1.044-24.821,2.082-49.641.882-21.036,1.77-42.072c.306-7.213.577-14.43.941-21.642.011-.208.021-.417.034-.626.161-2.571-3.839-2.561-4,0-.384,6.116-.549,12.252-.81,18.373q-.858,20.159-1.7,40.316Q8.847,330.858,7.81,355.565q-.958,22.825-1.931,45.651c-.413,9.676-.818,19.353-1.274,29.027q-.042.906-.086,1.811c-.127,2.573,3.873,2.566,4,0Z"/><path class="c" d="M21.774,248.656a57.282,57.282,0,0,0-.412,5.767c-.208,4.036-.384,8.074-.558,12.111q-.832,19.291-1.559,38.587-.944,24.2-1.86,48.4-.876,22.947-1.768,45.892c-.418,10.666-.828,21.332-1.318,32q-.055,1.191-.112,2.381c-.125,2.573,3.875,2.566,4,0,.473-9.782.845-19.568,1.232-29.353q.887-22.389,1.732-44.781.928-24.315,1.865-48.631.785-20.235,1.617-40.468c.291-6.9.41-13.849,1-20.733.027-.318.136-1.026-.006-.1a2.064,2.064,0,0,0-1.4-2.46,2.015,2.015,0,0,0-2.46,1.4Z"/><path class="g" d="M15.52,450.72c.864-1.786,1.561-14.778,1.329-18.049-2.3-.209-8.767-.455-10.617-.591-.946,3.128-1.35,16.027-.947,18.251C6.2,451.494,13.892,452.467,15.52,450.72Z"/><path class="g" d="M19.976,230.559c3.652.175,5.321,2.625,5.291,8.35-.015,2.831-.732,9.456-.912,12.234-.275,4.248-2.6,5.8-5.07,5.687-3.876-.185-5.951-1.329-6.08-5.185.07-1.471.437-11.665.522-13.01C14.168,231.647,17.093,230.421,19.976,230.559Z"/><path class="c" d="M17.247,451.73a13.215,13.215,0,0,0,.851-3.909c.221-1.776.364-3.562.483-5.347a74.453,74.453,0,0,0,.268-9.8,2.062,2.062,0,0,0-2-2c-3.531-.311-7.082-.338-10.617-.591A2.021,2.021,0,0,0,4.3,431.548a29.622,29.622,0,0,0-.811,5.95c-.2,2.53-.306,5.068-.348,7.605a22.826,22.826,0,0,0,.19,5.621c.557,2.264,3.986,2.574,5.866,2.8,2.429.291,5.845.481,7.734-1.39,1.832-1.814-1-4.642-2.828-2.828q-.223.21.137-.085a2.242,2.242,0,0,1-.219.133q-.288.14.1-.03c-.071.027-.143.052-.215.074-.184.044-.367.1-.551.143-.114.023-.228.045-.343.063.232-.027.227-.027-.017,0a16.238,16.238,0,0,1-2.858.012,11.593,11.593,0,0,1-2.395-.375c-.356-.088-.7-.208-1.047-.318.55.173.035.056-.066-.052-.248-.266.37.383.072.045l.514.883c-.052-.306.048.613.024.187-.006-.113-.022-.227-.031-.341-.018-.241-.03-.483-.04-.725-.029-.692-.036-1.384-.037-2.075,0-1.768.047-3.536.123-5.3.08-1.823.188-3.645.362-5.461.036-.373.074-.746.117-1.118.007-.058.087-.7.05-.418s.045-.31.054-.364a12.181,12.181,0,0,1,.326-1.572L6.232,434.08c3.535.253,7.086.28,10.617.591l-2-2a72.583,72.583,0,0,1-.239,9.36c-.113,1.758-.248,3.516-.449,5.267-.02.174-.043.349-.063.523-.054.5.048-.313-.014.119-.048.329-.1.659-.158.986-.041.224-.084.448-.141.668s-.334.867.008.117a2.059,2.059,0,0,0,.717,2.736A2.017,2.017,0,0,0,17.247,451.73Z"/><path class="c" d="M19.976,232.559a2.82,2.82,0,0,1,2.87,2.392,19.44,19.44,0,0,1,.3,6.673c-.169,2.487-.413,4.968-.627,7.452-.148,1.728,0,4.123-1.469,5.3-1.052.84-3.455.535-4.7-.16-1.085-.605-1.157-2.113-1.1-3.458.147-3.618.268-7.237.424-10.855a12.977,12.977,0,0,1,1.167-5.867c.752-1.338,1.7-1.531,3.143-1.477,2.574.1,2.57-3.9,0-4a7.1,7.1,0,0,0-5.6,2.109c-1.989,2.168-2.492,5.3-2.656,8.124-.234,4.036-.317,8.083-.482,12.122-.1,2.39.486,4.845,2.486,6.341a9.5,9.5,0,0,0,7.89,1.26c3.141-1.049,4.451-4.081,4.726-7.164q.373-4.2.709-8.4c.247-3.177.579-6.664-.562-9.713a6.971,6.971,0,0,0-6.509-4.676C17.405,228.4,17.415,232.4,19.976,232.559Z"/><path class="a" d="M25.1,214.538c-1.841,2.083-6.107,4.41-8.638,5.431-4.889,1.972-8.058,3.762-10.777,8.622-2.331,4.165-2.489,6.035-3.4,11.36-.345,2.008-.472,6.164.256,8.082.8,2.107,2.744,4.411,4.68,2.444,1.542,2.8,2.178,3.035,3.213,3.767.876.62,3.646-.789,4.369-2.484,1.076-2.522,1.7-6.381,3.166-9.405a40.7,40.7,0,0,1,3.662-6.029c.329.256.552.426.552.426,4.611,6,9.292,1.722,10.928-1.193,2.143-3.821,2.4-11.936,5.071-16.065Z"/><path class="c" d="M36.45,218.485c-2.638,4.2-2.809,9.448-4.265,14.082a7.9,7.9,0,0,1-3.723,4.9,2.843,2.843,0,0,1-2.027.211,6.177,6.177,0,0,1-2.843-2.34,2.011,2.011,0,0,0-2.828,0,2.049,2.049,0,0,0,0,2.829c1.952,2.468,4.835,4.2,8.053,3.4a10.314,10.314,0,0,0,6.386-5.742,39.7,39.7,0,0,0,2.231-7.929c.565-2.542,1.093-5.2,2.47-7.4s-2.087-4.2-3.454-2.019Z"/><path class="c" d="M23.212,231.135c-3.7,4.363-6.956,9.047-8.616,14.579-.42,1.4-.775,2.823-1.24,4.21a3.349,3.349,0,0,1-1.963,2.356c-.09.037-.328.159-.273.1q.149.03-.183.012.758.285.425.072c-.01-.037-.879-.66-.515-.352a9.091,9.091,0,0,1-1.9-2.645,2.026,2.026,0,0,0-3.141-.405c-.207.187-.139.145-.14.145-.175-.063-.371-.343-.485-.482a4.718,4.718,0,0,1-.865-1.7,14.277,14.277,0,0,1-.291-4.222,37.481,37.481,0,0,1,1.4-8.572,19.442,19.442,0,0,1,4.041-7.589,18.425,18.425,0,0,1,6.847-4.46,33.123,33.123,0,0,0,9.585-5.594c1.917-1.726-.919-4.547-2.828-2.828-2.77,2.493-6.261,3.826-9.6,5.329a19.85,19.85,0,0,0-8.2,6.45,24.617,24.617,0,0,0-4.144,9.552A36.63,36.63,0,0,0,.105,245.919a9.511,9.511,0,0,0,2.31,5.714,4.187,4.187,0,0,0,6.216.258l-3.142-.405c1.081,1.928,2.9,4.848,5.448,4.906,3.161.073,5.378-2.715,6.276-5.405,1.152-3.448,1.9-6.823,3.751-10a49.164,49.164,0,0,1,5.076-7.023c1.656-1.952-1.161-4.795-2.828-2.828Z"/><path class="c" d="M10.461,233.224A89.655,89.655,0,0,0,5,249.945a2.047,2.047,0,0,0,1.4,2.46,2.022,2.022,0,0,0,2.461-1.4,83.045,83.045,0,0,1,2.348-8.344q.7-2.133,1.464-4.24.342-.935.7-1.861.171-.438.349-.872c.044-.108.089-.216.134-.324-.177.425.032-.07.055-.124a2.066,2.066,0,0,0-.717-2.737,2.015,2.015,0,0,0-2.737.718Z"/><path class="c" d="M75.985,96.558c-7.97,2.7-16.044,5.7-23.4,9.831-6,3.366-12.091,7.9-15.045,14.3-2.784,6.03-4.133,12.662-5.4,19.145-1.313,6.713-2.5,13.449-3.707,20.181-1.77,9.9-3.862,19.719-6.05,29.539q-1.715,7.694-3.49,15.373c-.406,1.745-.814,3.489-1.241,5.229-.375,1.535-1.149,3.366.549,4.4a18.887,18.887,0,0,0,3.8,1.494c2.1.709,4.221,1.356,6.347,1.982a111.547,111.547,0,0,0,12.6,3.232,12.641,12.641,0,0,0,1.929.235,2.046,2.046,0,0,0,1.928-1.469,232.065,232.065,0,0,0,8.3-35.222,2.062,2.062,0,0,0-1.4-2.46,2.016,2.016,0,0,0-2.461,1.4,232.185,232.185,0,0,1-8.3,35.222l1.929-1.468c-.191,0-1.04-.117-.386-.015-.4-.062-.791-.131-1.185-.208-.992-.2-1.977-.427-2.958-.666-2.562-.625-5.1-1.326-7.638-2.057-2.43-.7-4.855-1.431-7.255-2.23-.835-.277-1.67-.56-2.491-.878q-.238-.093-.476-.19c.684.281.088,0,.014,0-.3,0-.566-.566-.023.047l.514,1.946c1.553-5.681,2.739-11.48,4.034-17.224,1.729-7.663,3.44-15.332,5.042-23.023,1.788-8.582,3.148-17.255,4.746-25.874.866-4.669,1.723-9.348,2.84-13.965,1.106-4.567,2.319-9.537,5.009-13.47,3.382-4.946,9.008-8.417,14.243-11.083a151.023,151.023,0,0,1,20.142-8.2c2.425-.821,1.384-4.686-1.064-3.857Z"/><path class="c" d="M50.9,226.111c10.308,0,20.616.081,30.924.133q21.369.108,42.737.211c5.053.022,10.105.048,15.158.048,2.574,0,2.578-4,0-4-10.991,0-21.983-.078-32.973-.132q-21.081-.105-42.161-.211c-4.562-.021-9.124-.048-13.685-.049-2.574,0-2.578,4,0,4Z"/><path class="c" d="M74.467,100.874c6.38,7.1,12.945,14.1,19.643,20.9a2.021,2.021,0,0,0,2.828,0c6.492-7.049,13.194-13.941,19.37-21.273,1.649-1.957-1.167-4.8-2.828-2.829C107.3,105,100.6,111.892,94.11,118.941h2.828c-6.7-6.8-13.263-13.8-19.643-20.895-1.724-1.919-4.546.917-2.828,2.828Z"/><path class="c" d="M49.286,147.476c0,9.028-.04,18.056-.066,27.084q-.036,12.534-.065,25.067-.023,12.246-.536,24.484c-.1,2.574,3.9,2.57,4,0,.438-10.769.522-21.539.551-32.315q.043-15.763.09-31.526.017-6.4.026-12.794c0-2.574-4-2.578-4,0Z"/><path class="c" d="M137.631,147.476c0,10.61.049,21.221.08,31.832.03,10.506.035,21.012.073,31.518.026,7.255-.057,14.533.23,21.784.1,2.566,4.1,2.579,4,0-.478-12.088-.23-24.225-.256-36.32q-.037-16.807-.095-33.613-.021-7.6-.032-15.2c0-2.574-4-2.578-4,0Z"/><path class="c" d="M147.231,233.445c-1.637,7.118-1.31,14.462-1.74,21.7-.1,1.615-.293,3.135.833,4.463a4.1,4.1,0,0,0,3.534,1.428c3.026-.3,4.617-3.865,6.727-5.627l-3.343-.883a32.109,32.109,0,0,1,.336,6.71,53.118,53.118,0,0,1-.251,5.338c-.269,2.076-1.211,4.691-1.268,6.988-.071,2.821,1.61,4.589,4.405,4.95,6.023.776,9.724-5.536,11.036-10.471,1.594-5.99.668-12.294-.8-18.213-1.454-5.88-4.822-11.25-4.99-17.421-.071-2.569-4.071-2.579-4,0,.137,5.022,2.061,9.451,3.758,14.09a43.01,43.01,0,0,1,2.871,15.518c-.1,4.166-1.351,10.667-5.84,12.33a2.836,2.836,0,0,1-2.542-.15c.381.223.139.3.1-.262a6.8,6.8,0,0,1,.271-1.988,50.336,50.336,0,0,0,1.036-5.713,45.814,45.814,0,0,0-.267-12.769c-.287-1.617-2.3-1.749-3.343-.883a25.918,25.918,0,0,0-2.38,2.607c-.339.372-.7.723-1.063,1.074-.209.2-.431.4-.632.609-.041.043-.443.373-.2.228s-.159.1-.158-.111c0-.017-.059.53.05-.142.045-.275.044-.567.063-.845.1-1.45.161-2.9.211-4.355.2-5.722.15-11.529,1.441-17.139.576-2.506-3.28-3.575-3.857-1.064Z"/><path class="c" d="M115.472,100.415a159.618,159.618,0,0,1,19.259,7.757c5.3,2.6,10.449,5.859,14.278,10.422a32.7,32.7,0,0,1,7.357,16.927q1.336,10.614,2.269,21.273c1.244,14.076,1.965,28.185,2.584,42.3q.479,10.9.977,21.805.128,2.726.262,5.45a7.894,7.894,0,0,1,.123,2.055c-.082.283-.584.494-.289.42a12.6,12.6,0,0,1-1.875.166l-18.28,1.62a2.054,2.054,0,0,0-2,2,2.015,2.015,0,0,0,2,2l17.283-1.532c.911-.08,1.825-.146,2.735-.242a4.561,4.561,0,0,0,4.4-4.2,46.543,46.543,0,0,0-.239-5.261q-.144-2.973-.28-5.947-.262-5.7-.51-11.4c-.653-14.834-1.288-29.668-2.486-44.471q-.9-11.079-2.193-22.119a58.765,58.765,0,0,0-1.744-10.5,37.321,37.321,0,0,0-4.243-9.04c-3.944-6.167-9.58-10.662-15.986-14.095a146.925,146.925,0,0,0-22.337-9.249c-2.443-.828-3.492,3.035-1.063,3.857Z"/><path class="a" d="M84.443,114.876c-4.712-4.682-7.8-10.353-11.278-16.018a25.106,25.106,0,0,1,5.113-6.908A50.83,50.83,0,0,0,92.95,102.175c.3.138.642.306.74.625a1.173,1.173,0,0,1-.17.828,47.146,47.146,0,0,1-3.034,3.919C88.421,110.073,85.829,113.169,84.443,114.876Z"/><path class="a" d="M106.332,114.876c4.711-4.682,7.8-10.353,11.277-16.018A25.082,25.082,0,0,0,112.5,91.95a50.83,50.83,0,0,1-14.672,10.225c-.3.138-.642.306-.74.625a1.178,1.178,0,0,0,.169.828,47.5,47.5,0,0,0,3.035,3.919C102.354,110.073,104.946,113.169,106.332,114.876Z"/><path class="c" d="M85.857,113.462c-4.531-4.553-7.634-10.18-10.965-15.613v2.019a24.214,24.214,0,0,1,4.8-6.5H76.864a53.116,53.116,0,0,0,7.561,6.265q1.98,1.362,4.082,2.536.934.522,1.891,1,.512.257,1.029.5c.171.08.342.16.513.237q.453.264.023-.093L91.69,102.8c-.018-.235.2-.191-.007.007a2.666,2.666,0,0,0-.255.364c-.266.37-.553.726-.836,1.082-.892,1.12-1.8,2.225-2.711,3.329-1.616,1.962-3.249,3.909-4.853,5.88a2.059,2.059,0,0,0,0,2.828,2.015,2.015,0,0,0,2.829,0c1.882-2.313,3.8-4.6,5.694-6.9,1-1.225,2.007-2.452,2.967-3.713a3.93,3.93,0,0,0,1.1-3.407c-.438-1.588-2.251-2.068-3.545-2.73q-2.2-1.125-4.283-2.467a48.12,48.12,0,0,1-8.1-6.535,2.037,2.037,0,0,0-2.829,0,26.5,26.5,0,0,0-4.692,5.98,8.294,8.294,0,0,0-.935,1.811,2.759,2.759,0,0,0,.626,2.234c.666,1.093,1.323,2.19,1.987,3.283a65.252,65.252,0,0,0,9.178,12.446C84.847,118.118,87.675,115.29,85.857,113.462Z"/><path class="c" d="M107.746,116.29a65.257,65.257,0,0,0,9.179-12.446c.664-1.093,1.321-2.19,1.987-3.283a3.007,3.007,0,0,0,.662-1.969,5.6,5.6,0,0,0-.875-1.909,26.577,26.577,0,0,0-4.788-6.147,2.036,2.036,0,0,0-2.829,0,48.054,48.054,0,0,1-7.929,6.425c-1.385.9-2.813,1.732-4.28,2.489-1.331.687-3.266,1.183-3.717,2.818a3.83,3.83,0,0,0,1.021,3.3c.943,1.25,1.937,2.462,2.929,3.673,1.929,2.356,3.89,4.685,5.812,7.046a2.012,2.012,0,0,0,2.828,0,2.046,2.046,0,0,0,0-2.828c-1.6-1.971-3.236-3.919-4.853-5.88-.91-1.1-1.819-2.209-2.71-3.329-.262-.329-.525-.657-.774-1a3.707,3.707,0,0,0-.317-.449c-.175-.168.015-.287-.007-.007l-.273,1.009q-.429.357.023.093l.341-.157c.344-.162.688-.324,1.029-.493q1.044-.517,2.063-1.087,2.1-1.17,4.082-2.536a52.982,52.982,0,0,0,7.561-6.265h-2.829a24.189,24.189,0,0,1,4.8,6.5V97.849c-3.33,5.433-6.434,11.06-10.964,15.613C103.1,115.289,105.928,118.118,107.746,116.29Z"/></svg>