<svg xmlns="http://www.w3.org/2000/svg" xmlns:xlink="http://www.w3.org/1999/xlink" width="500" zoomAndPan="magnify" viewBox="0 0 375 374.999991" height="500" preserveAspectRatio="xMidYMid meet" version="1.0"><defs><clipPath id="b6f713bc26"><path d="M 24.96875 23 L 348 23 L 348 352.8125 L 24.96875 352.8125 Z M 24.96875 23 " clip-rule="nonzero"/></clipPath></defs><g clip-path="url(#b6f713bc26)"><path fill="#159444" d="M 347.152344 322.40625 C 347.152344 339.117188 333.613281 352.664062 316.90625 352.664062 L 48.847656 352.664062 C 48.722656 352.664062 48.601562 352.664062 48.476562 352.660156 C 32.710938 352.472656 28.257812 330.820312 42.507812 324.054688 C 78.835938 306.808594 108.0625 298.359375 108.0625 298.359375 C 139.578125 242.941406 263.101562 281.796875 265.332031 259.183594 C 265.691406 255.527344 258.011719 246.445312 258.011719 246.445312 L 274.25 246.445312 C 274.25 246.445312 349.699219 194.84375 312.449219 186.25 C 288.074219 180.617188 266.15625 169.265625 253.914062 162.085938 C 241.113281 160.78125 214.339844 156.796875 197.839844 145.476562 C 197.839844 145.476562 220.433594 136.164062 244.074219 152.113281 C 247.296875 102.847656 144.355469 77.320312 144.355469 77.320312 C 129.914062 8.703125 105.917969 38.632812 101.335938 59.527344 C 98.246094 73.621094 103.28125 84.921875 103.28125 84.921875 C 97.246094 76.550781 94.796875 67.917969 93.902344 61.09375 C 82.3125 57.597656 56.324219 49.210938 24.960938 35.714844 C 30.496094 28.582031 39.121094 23.972656 48.847656 23.972656 L 316.90625 23.972656 C 333.613281 23.972656 347.152344 37.515625 347.152344 54.226562 L 347.152344 322.40625 " fill-opacity="1" fill-rule="nonzero"/></g></svg>