<svg xmlns="http://www.w3.org/2000/svg" xmlns:xlink="http://www.w3.org/1999/xlink" width="400" zoomAndPan="magnify" viewBox="0 0 300 149.999998" height="200" preserveAspectRatio="xMidYMid meet" version="1.0"><defs><g/><clipPath id="feb71eeae2"><path d="M 15 44 L 78 44 L 78 108.492188 L 15 108.492188 Z M 15 44 " clip-rule="nonzero"/></clipPath></defs><g clip-path="url(#feb71eeae2)"><path fill="#ffffff" d="M 77.5 102.59375 C 77.5 105.832031 74.875 108.457031 71.632812 108.457031 L 19.632812 108.457031 C 19.609375 108.457031 19.585938 108.457031 19.558594 108.457031 C 16.5 108.421875 15.636719 104.222656 18.402344 102.910156 C 25.449219 99.566406 31.121094 97.929688 31.121094 97.929688 C 37.234375 87.1875 61.195312 94.71875 61.628906 90.335938 C 61.699219 89.625 60.207031 87.863281 60.207031 87.863281 L 63.359375 87.863281 C 63.359375 87.863281 77.996094 77.863281 70.769531 76.195312 C 66.039062 75.101562 61.789062 72.902344 59.414062 71.511719 C 56.929688 71.257812 51.738281 70.484375 48.535156 68.289062 C 48.535156 68.289062 52.917969 66.484375 57.503906 69.578125 C 58.128906 60.027344 38.160156 55.078125 38.160156 55.078125 C 35.359375 41.773438 30.703125 47.578125 29.8125 51.628906 C 29.214844 54.359375 30.191406 56.550781 30.191406 56.550781 C 29.019531 54.929688 28.546875 53.253906 28.371094 51.929688 C 26.125 51.253906 21.082031 49.628906 15 47.011719 C 16.070312 45.628906 17.746094 44.734375 19.632812 44.734375 L 71.632812 44.734375 C 74.875 44.734375 77.5 47.359375 77.5 50.601562 L 77.5 102.59375 " fill-opacity="1" fill-rule="nonzero"/></g><g fill="#ffffff" fill-opacity="1"><g transform="translate(86.598315, 106.787638)"><g><path d="M 1.171875 0 L 1.171875 -11.375 L 15.453125 -51.125 L 2.546875 -51.125 L 2.546875 -62.640625 L 28.734375 -62.640625 L 28.734375 -51.703125 L 14.078125 -11.515625 L 28.078125 -11.515625 L 28.078125 0 Z M 1.171875 0 "/></g></g></g><g fill="#ffffff" fill-opacity="1"><g transform="translate(119.773895, 106.787638)"><g><path d="M 17.71875 0.578125 C 12.664062 0.578125 8.828125 -0.960938 6.203125 -4.046875 C 3.578125 -7.128906 2.265625 -11.46875 2.265625 -17.0625 L 2.265625 -46.890625 C 2.265625 -52.285156 3.578125 -56.351562 6.203125 -59.09375 C 8.828125 -61.84375 12.664062 -63.21875 17.71875 -63.21875 C 22.769531 -63.21875 26.609375 -61.84375 29.234375 -59.09375 C 31.859375 -56.351562 33.171875 -52.285156 33.171875 -46.890625 L 33.171875 -17.0625 C 33.171875 -11.425781 31.859375 -7.078125 29.234375 -4.015625 C 26.609375 -0.953125 22.769531 0.578125 17.71875 0.578125 Z M 17.71875 -10.9375 C 18.832031 -10.9375 19.582031 -11.421875 19.96875 -12.390625 C 20.363281 -13.367188 20.5625 -14.734375 20.5625 -16.484375 L 20.5625 -47.109375 C 20.5625 -48.472656 20.378906 -49.578125 20.015625 -50.421875 C 19.648438 -51.273438 18.910156 -51.703125 17.796875 -51.703125 C 15.703125 -51.703125 14.65625 -50.125 14.65625 -46.96875 L 14.65625 -16.40625 C 14.65625 -14.601562 14.875 -13.238281 15.3125 -12.3125 C 15.75 -11.394531 16.550781 -10.9375 17.71875 -10.9375 Z M 17.71875 -10.9375 "/></g></g></g><g fill="#ffffff" fill-opacity="1"><g transform="translate(158.490771, 106.787638)"><g><path d="M 17.71875 0.578125 C 12.664062 0.578125 8.828125 -0.960938 6.203125 -4.046875 C 3.578125 -7.128906 2.265625 -11.46875 2.265625 -17.0625 L 2.265625 -46.890625 C 2.265625 -52.285156 3.578125 -56.351562 6.203125 -59.09375 C 8.828125 -61.84375 12.664062 -63.21875 17.71875 -63.21875 C 22.769531 -63.21875 26.609375 -61.84375 29.234375 -59.09375 C 31.859375 -56.351562 33.171875 -52.285156 33.171875 -46.890625 L 33.171875 -17.0625 C 33.171875 -11.425781 31.859375 -7.078125 29.234375 -4.015625 C 26.609375 -0.953125 22.769531 0.578125 17.71875 0.578125 Z M 17.71875 -10.9375 C 18.832031 -10.9375 19.582031 -11.421875 19.96875 -12.390625 C 20.363281 -13.367188 20.5625 -14.734375 20.5625 -16.484375 L 20.5625 -47.109375 C 20.5625 -48.472656 20.378906 -49.578125 20.015625 -50.421875 C 19.648438 -51.273438 18.910156 -51.703125 17.796875 -51.703125 C 15.703125 -51.703125 14.65625 -50.125 14.65625 -46.96875 L 14.65625 -16.40625 C 14.65625 -14.601562 14.875 -13.238281 15.3125 -12.3125 C 15.75 -11.394531 16.550781 -10.9375 17.71875 -10.9375 Z M 17.71875 -10.9375 "/></g></g></g><g fill="#ffffff" fill-opacity="1"><g transform="translate(197.207648, 106.787638)"><g><path d="M 2.765625 0 L 2.765625 -62.640625 L 21.875 -62.640625 L 27.125 -24.421875 L 32.375 -62.640625 L 51.625 -62.640625 L 51.625 0 L 40.1875 0 L 40.1875 -45.140625 L 32.953125 0 L 21.734375 0 L 14.078125 -45.140625 L 14.078125 0 Z M 2.765625 0 "/></g></g></g><g fill="#ffffff" fill-opacity="1"><g transform="translate(254.881544, 106.787638)"><g><path d="M 1.09375 0 L 7.140625 -62.640625 L 28.359375 -62.640625 L 34.34375 0 L 22.453125 0 L 21.578125 -10.140625 L 14 -10.140625 L 13.265625 0 Z M 14.953125 -20.125 L 20.640625 -20.125 L 17.859375 -52 L 17.28125 -52 Z M 14.953125 -20.125 "/></g></g></g></svg>